<svg width="64" height="52" viewBox="35 19 50 70" fill="none" xmlns="http://www.w3.org/2000/svg">
<g filter="url(#filter0_d_46_2752)">
<rect x="24.0381" y="19.6543" width="64.9526" height="64.9526" rx="32.4763" fill="#103162"/>
<path fill-rule="evenodd" clip-rule="evenodd" d="M33.124 37.2456C33.124 36.1282 33.3442 35.0218 33.7719 33.9896C34.1996 32.9574 34.8265 32.0195 35.6168 31.2296C36.4071 30.4397 37.3452 29.8133 38.3777 29.3861C39.4101 28.9589 40.5166 28.7393 41.634 28.7399H71.3954C72.5127 28.7393 73.6192 28.9589 74.6517 29.3861C75.6841 29.8133 76.6223 30.4397 77.4126 31.2296C78.2029 32.0195 78.8298 32.9574 79.2575 33.9896C79.6852 35.0218 79.9053 36.1282 79.9053 37.2456V67.0155C79.9053 69.2713 79.0092 71.4348 77.4141 73.0299C75.819 74.6251 73.6555 75.5212 71.3996 75.5212H41.6297C39.3739 75.5212 37.2104 74.6251 35.6153 73.0299C34.0202 71.4348 33.124 69.2713 33.124 67.0155V37.2456ZM73.5261 52.1305C73.5261 56.6422 71.7338 60.9691 68.5436 64.1594C65.3533 67.3497 61.0264 69.1419 56.5147 69.1419C52.003 69.1419 47.6761 67.3497 44.4858 64.1594C41.2956 60.9691 39.5033 56.6422 39.5033 52.1305C39.5033 47.6188 41.2956 43.2919 44.4858 40.1017C47.6761 36.9114 52.003 35.1191 56.5147 35.1191C61.0264 35.1191 65.3533 36.9114 68.5436 40.1017C71.7338 43.2919 73.5261 47.6188 73.5261 52.1305ZM56.5147 56.3834C57.6426 56.3834 58.7243 55.9353 59.5219 55.1377C60.3195 54.3402 60.7675 53.2585 60.7675 52.1305C60.7675 51.0026 60.3195 49.9209 59.5219 49.1233C58.7243 48.3258 57.6426 47.8777 56.5147 47.8777C55.3868 47.8777 54.305 48.3258 53.5075 49.1233C52.7099 49.9209 52.2618 51.0026 52.2618 52.1305C52.2618 53.2585 52.7099 54.3402 53.5075 55.1377C54.305 55.9353 55.3868 56.3834 56.5147 56.3834Z" fill="#E38E89"/>
</g>
<defs>
<filter id="filter0_d_46_2752" x="0.840738" y="0.168525" width="111.347" height="111.347" filterUnits="userSpaceOnUse" color-interpolation-filters="sRGB">
<feFlood flood-opacity="0" result="BackgroundImageFix"/>
<feColorMatrix in="SourceAlpha" type="matrix" values="0 0 0 0 0 0 0 0 0 0 0 0 0 0 0 0 0 0 127 0" result="hardAlpha"/>
<feOffset dy="3.71158"/>
<feGaussianBlur stdDeviation="11.5987"/>
<feComposite in2="hardAlpha" operator="out"/>
<feColorMatrix type="matrix" values="0 0 0 0 0 0 0 0 0 0 0 0 0 0 0 0 0 0 0.1 0"/>
<feBlend mode="normal" in2="BackgroundImageFix" result="effect1_dropShadow_46_2752"/>
<feBlend mode="normal" in="SourceGraphic" in2="effect1_dropShadow_46_2752" result="shape"/>
</filter>
</defs>
</svg>
