<svg xmlns="http://www.w3.org/2000/svg" width="24" height="25" viewBox="0 0 24 25" fill="none">
  <path d="M11.8789 2.73218C17.4019 2.73218 21.8789 7.20918 21.8789 12.7322C21.8789 18.2552 17.4019 22.7322 11.8789 22.7322C6.35591 22.7322 1.87891 18.2552 1.87891 12.7322C1.87891 7.20918 6.35591 2.73218 11.8789 2.73218ZM11.8789 4.23218C9.62457 4.23218 7.46256 5.12771 5.8685 6.72177C4.27444 8.31583 3.37891 10.4778 3.37891 12.7322C3.37891 14.9865 4.27444 17.1485 5.8685 18.7426C7.46256 20.3366 9.62457 21.2322 11.8789 21.2322C14.1332 21.2322 16.2953 20.3366 17.8893 18.7426C19.4834 17.1485 20.3789 14.9865 20.3789 12.7322C20.3789 10.4778 19.4834 8.31583 17.8893 6.72177C16.2953 5.12771 14.1332 4.23218 11.8789 4.23218ZM11.5259 8.28518L11.5989 8.20118C11.7259 8.07416 11.8942 7.99693 12.0734 7.98354C12.2525 7.97014 12.4304 8.02146 12.5749 8.12818L12.6589 8.20118L16.6599 12.2012C16.7872 12.3282 16.8646 12.4968 16.878 12.6761C16.8914 12.8554 16.8399 13.0336 16.7329 13.1782L16.6599 13.2632L12.6579 17.2632C12.5241 17.3974 12.3444 17.4759 12.155 17.483C11.9656 17.4902 11.7806 17.4253 11.6371 17.3016C11.4935 17.1778 11.4022 17.0043 11.3814 16.8159C11.3606 16.6275 11.4119 16.4383 11.5249 16.2862L11.5979 16.2022L14.3199 13.4812H7.62791C7.44667 13.4812 7.27156 13.4155 7.13498 13.2964C6.99839 13.1773 6.90955 13.0127 6.88491 12.8332L6.87791 12.7322C6.87795 12.5508 6.94372 12.3756 7.06305 12.239C7.18238 12.1023 7.34717 12.0136 7.52691 11.9892L7.62791 11.9822H14.3179L11.5979 9.26218C11.471 9.13506 11.394 8.96665 11.3808 8.78754C11.3676 8.60843 11.4191 8.42953 11.5259 8.28518Z" fill="white"/>
</svg>