<svg xmlns="http://www.w3.org/2000/svg" width="248" height="236" viewBox="0 0 248 236" fill="none">
  <path d="M81.3405 166.93C81.3405 176.653 77.4781 185.978 70.603 192.853C63.728 199.728 54.4033 203.59 44.6805 203.59C34.9577 203.59 25.6331 199.728 18.758 192.853C11.8829 185.978 8.02051 176.653 8.02051 166.93C8.02051 157.207 11.8829 147.883 18.758 141.008C25.6331 134.133 34.9577 130.27 44.6805 130.27C54.4033 130.27 63.728 134.133 70.603 141.008C77.4781 147.883 81.3405 157.207 81.3405 166.93ZM81.3405 166.93V8.07031H203.54V118.05M81.3405 56.9503H203.54M240.2 228.03L179.1 166.93M179.1 228.03L240.2 166.93" stroke="#D9D9D9" stroke-width="15" stroke-linecap="round" stroke-linejoin="round"/>
  <path d="M81.3405 166.93C81.3405 176.653 77.4781 185.978 70.603 192.853C63.728 199.728 54.4033 203.59 44.6805 203.59C34.9577 203.59 25.6331 199.728 18.758 192.853C11.8829 185.978 8.02051 176.653 8.02051 166.93C8.02051 157.207 11.8829 147.883 18.758 141.008C25.6331 134.133 34.9577 130.27 44.6805 130.27C54.4033 130.27 63.728 134.133 70.603 141.008C77.4781 147.883 81.3405 157.207 81.3405 166.93ZM81.3405 166.93V8.07031H203.54V118.05M81.3405 56.9503H203.54M240.2 228.03L179.1 166.93M179.1 228.03L240.2 166.93" stroke="black" stroke-opacity="0.2" stroke-width="15" stroke-linecap="round" stroke-linejoin="round"/>
  <path d="M81.3405 166.93C81.3405 176.653 77.4781 185.978 70.603 192.853C63.728 199.728 54.4033 203.59 44.6805 203.59C34.9577 203.59 25.6331 199.728 18.758 192.853C11.8829 185.978 8.02051 176.653 8.02051 166.93C8.02051 157.207 11.8829 147.883 18.758 141.008C25.6331 134.133 34.9577 130.27 44.6805 130.27C54.4033 130.27 63.728 134.133 70.603 141.008C77.4781 147.883 81.3405 157.207 81.3405 166.93ZM81.3405 166.93V8.07031H203.54V118.05M81.3405 56.9503H203.54M240.2 228.03L179.1 166.93M179.1 228.03L240.2 166.93" stroke="black" stroke-opacity="0.2" stroke-width="15" stroke-linecap="round" stroke-linejoin="round"/>
  <path d="M81.3405 166.93C81.3405 176.653 77.4781 185.978 70.603 192.853C63.728 199.728 54.4033 203.59 44.6805 203.59C34.9577 203.59 25.6331 199.728 18.758 192.853C11.8829 185.978 8.02051 176.653 8.02051 166.93C8.02051 157.207 11.8829 147.883 18.758 141.008C25.6331 134.133 34.9577 130.27 44.6805 130.27C54.4033 130.27 63.728 134.133 70.603 141.008C77.4781 147.883 81.3405 157.207 81.3405 166.93ZM81.3405 166.93V8.07031H203.54V118.05M81.3405 56.9503H203.54M240.2 228.03L179.1 166.93M179.1 228.03L240.2 166.93" stroke="black" stroke-opacity="0.2" stroke-width="15" stroke-linecap="round" stroke-linejoin="round"/>
  <path d="M81.3405 166.93C81.3405 176.653 77.4781 185.978 70.603 192.853C63.728 199.728 54.4033 203.59 44.6805 203.59C34.9577 203.59 25.6331 199.728 18.758 192.853C11.8829 185.978 8.02051 176.653 8.02051 166.93C8.02051 157.207 11.8829 147.883 18.758 141.008C25.6331 134.133 34.9577 130.27 44.6805 130.27C54.4033 130.27 63.728 134.133 70.603 141.008C77.4781 147.883 81.3405 157.207 81.3405 166.93ZM81.3405 166.93V8.07031H203.54V118.05M81.3405 56.9503H203.54M240.2 228.03L179.1 166.93M179.1 228.03L240.2 166.93" stroke="black" stroke-opacity="0.2" stroke-width="15" stroke-linecap="round" stroke-linejoin="round"/>
  <path d="M81.3405 166.93C81.3405 176.653 77.4781 185.978 70.603 192.853C63.728 199.728 54.4033 203.59 44.6805 203.59C34.9577 203.59 25.6331 199.728 18.758 192.853C11.8829 185.978 8.02051 176.653 8.02051 166.93C8.02051 157.207 11.8829 147.883 18.758 141.008C25.6331 134.133 34.9577 130.27 44.6805 130.27C54.4033 130.27 63.728 134.133 70.603 141.008C77.4781 147.883 81.3405 157.207 81.3405 166.93ZM81.3405 166.93V8.07031H203.54V118.05M81.3405 56.9503H203.54M240.2 228.03L179.1 166.93M179.1 228.03L240.2 166.93" stroke="black" stroke-opacity="0.2" stroke-width="15" stroke-linecap="round" stroke-linejoin="round"/>
  <path d="M81.3405 166.93C81.3405 176.653 77.4781 185.978 70.603 192.853C63.728 199.728 54.4033 203.59 44.6805 203.59C34.9577 203.59 25.6331 199.728 18.758 192.853C11.8829 185.978 8.02051 176.653 8.02051 166.93C8.02051 157.207 11.8829 147.883 18.758 141.008C25.6331 134.133 34.9577 130.27 44.6805 130.27C54.4033 130.27 63.728 134.133 70.603 141.008C77.4781 147.883 81.3405 157.207 81.3405 166.93ZM81.3405 166.93V8.07031H203.54V118.05M81.3405 56.9503H203.54M240.2 228.03L179.1 166.93M179.1 228.03L240.2 166.93" stroke="black" stroke-opacity="0.2" stroke-width="15" stroke-linecap="round" stroke-linejoin="round"/>
</svg>