<svg xmlns="http://www.w3.org/2000/svg" width="12" height="8" viewBox="0 0 12 8" fill="none">
  <path d="M7.71884 4.00014C7.71884 4.48235 7.53776 4.94481 7.21543 5.28579C6.8931 5.62676 6.45593 5.81832 6.00009 5.81832C5.54425 5.81832 5.10708 5.62676 4.78475 5.28579C4.46242 4.94481 4.28134 4.48235 4.28134 4.00014C4.28134 3.51793 4.46242 3.05547 4.78475 2.71449C5.10708 2.37351 5.54425 2.18196 6.00009 2.18196C6.45593 2.18196 6.8931 2.37351 7.21543 2.71449C7.53776 3.05547 7.71884 3.51793 7.71884 4.00014Z" fill="url(#paint0_linear_290_12267)"/>
  <path d="M0.5 4C0.5 4 2.5625 0 6 0C9.4375 0 11.5 4 11.5 4C11.5 4 9.4375 8 6 8C2.5625 8 0.5 4 0.5 4ZM6 6.54545C6.63818 6.54545 7.25022 6.27727 7.70148 5.79991C8.15274 5.32254 8.40625 4.6751 8.40625 4C8.40625 3.3249 8.15274 2.67746 7.70148 2.20009C7.25022 1.72273 6.63818 1.45455 6 1.45455C5.36182 1.45455 4.74978 1.72273 4.29852 2.20009C3.84727 2.67746 3.59375 3.3249 3.59375 4C3.59375 4.6751 3.84727 5.32254 4.29852 5.79991C4.74978 6.27727 5.36182 6.54545 6 6.54545Z" fill="url(#paint1_linear_290_12267)"/>
  <defs>
    <linearGradient id="paint0_linear_290_12267" x1="0.689036" y1="3.50766" x2="11.15" y2="3.95995" gradientUnits="userSpaceOnUse">
      <stop stop-color="#2FA8EC"/>
      <stop offset="1" stop-color="#003078"/>
    </linearGradient>
    <linearGradient id="paint1_linear_290_12267" x1="0.689036" y1="3.50766" x2="11.15" y2="3.95995" gradientUnits="userSpaceOnUse">
      <stop stop-color="#2FA8EC"/>
      <stop offset="1" stop-color="#003078"/>
    </linearGradient>
  </defs>
</svg>