<svg xmlns="http://www.w3.org/2000/svg" width="17" height="17" viewBox="0 0 17 17" fill="none">
  <path d="M3.02967 2.50014C1.52938 4.00043 0.686523 6.03526 0.686523 8.15699C0.686523 10.2787 1.52938 12.3136 3.02967 13.8138C4.52996 15.3141 6.56479 16.157 8.68652 16.157C10.8083 16.157 12.8431 15.3141 14.3434 13.8138C15.8437 12.3136 16.6865 10.2787 16.6865 8.15699C16.6865 6.03526 15.8437 4.00043 14.3434 2.50014C12.8431 0.99985 10.8083 0.156994 8.68652 0.156994C6.56479 0.156994 4.52996 0.99985 3.02967 2.50014ZM5.22241 8.65692C5.15603 8.65807 5.09008 8.64599 5.02841 8.62139C4.96675 8.59678 4.9106 8.56014 4.86325 8.51361C4.8159 8.46707 4.77829 8.41157 4.75261 8.35034C4.72694 8.28911 4.71372 8.22339 4.71372 8.15699C4.71372 8.0906 4.72694 8.02488 4.75261 7.96365C4.77829 7.90242 4.8159 7.84692 4.86325 7.80038C4.9106 7.75385 4.96675 7.71721 5.02841 7.6926C5.09008 7.66799 5.15602 7.65592 5.22241 7.65707L11.015 7.65707L9.05775 5.6998C8.96399 5.60603 8.91131 5.47885 8.91131 5.34625C8.91131 5.21364 8.96399 5.08646 9.05775 4.99269C9.15152 4.89892 9.2787 4.84625 9.41131 4.84625C9.54392 4.84625 9.67109 4.89892 9.76486 4.99269L12.5756 7.80344C12.6694 7.89721 12.7221 8.02439 12.7221 8.15699C12.7221 8.2896 12.6694 8.41678 12.5756 8.51055L9.76486 11.3213C9.67109 11.4151 9.54392 11.4677 9.41131 11.4677C9.2787 11.4677 9.15152 11.4151 9.05775 11.3213C8.96399 11.2275 8.91131 11.1004 8.91131 10.9677C8.91131 10.8351 8.96399 10.708 9.05775 10.6142L11.015 8.65692L5.22241 8.65692Z" fill="white"/>
</svg>