<svg xmlns="http://www.w3.org/2000/svg" width="192" height="206" viewBox="0 0 192 206" fill="none">
  <g clip-path="url(#clip0_46_2307)">
    <line y1="-0.550958" x2="6.48719" y2="-0.550958" transform="matrix(0.422517 -0.906355 0.961914 0.273352 130.71 7.5835)" stroke="#1D9BF0" stroke-width="1.10192"/>
    <line y1="-0.550958" x2="6.73936" y2="-0.550958" transform="matrix(0.594567 -0.804046 0.911657 0.410952 147.792 7.38818)" stroke="#1D9BF0" stroke-width="1.10192"/>
    <line y1="-0.550958" x2="7.03637" y2="-0.550958" transform="matrix(0.732097 -0.6812 0.836474 0.548007 164.966 7.1925)" stroke="#1D9BF0" stroke-width="1.10192"/>
    <line y1="-0.550958" x2="7.33924" y2="-0.550958" transform="matrix(0.836474 -0.548007 0.732097 0.6812 182.255 6.80151)" stroke="#1D9BF0" stroke-width="1.10192"/>
    <line y1="-0.550958" x2="7.33924" y2="-0.550958" transform="matrix(-0.836474 -0.548007 0.732097 -0.6812 11.1475 6.80151)" stroke="#1D9BF0" stroke-width="1.10192"/>
    <line y1="-0.550958" x2="7.03637" y2="-0.550958" transform="matrix(-0.732097 -0.6812 0.836474 -0.548007 28.4385 7.1925)" stroke="#1D9BF0" stroke-width="1.10192"/>
    <line y1="-0.550958" x2="6.73936" y2="-0.550958" transform="matrix(-0.594567 -0.804046 0.911657 -0.410952 45.6123 7.38818)" stroke="#1D9BF0" stroke-width="1.10192"/>
    <line y1="-0.550958" x2="6.48719" y2="-0.550958" transform="matrix(-0.422517 -0.906355 0.961914 -0.273352 62.6943 7.5835)" stroke="#1D9BF0" stroke-width="1.10192"/>
    <line y1="-0.550958" x2="6.31717" y2="-0.550958" transform="matrix(-0.220291 -0.975434 0.990656 -0.136383 79.7139 7.77917)" stroke="#1D9BF0" stroke-width="1.10192"/>
    <line x1="96.1502" y1="7.77917" x2="96.1502" y2="1.52213" stroke="#1D9BF0" stroke-width="1.10192"/>
    <line y1="-0.550958" x2="6.31717" y2="-0.550958" transform="matrix(0.220291 -0.975434 0.990656 0.136383 113.688 7.77917)" stroke="#1D9BF0" stroke-width="1.10192"/>
    <line y1="-0.550958" x2="6.48719" y2="-0.550958" transform="matrix(0.422517 -0.906355 0.961914 0.273352 112.679 18.5334)" stroke="#1D9BF0" stroke-width="1.10192"/>
    <line y1="-0.550958" x2="6.73936" y2="-0.550958" transform="matrix(0.594567 -0.804046 0.911657 0.410952 129.759 18.3378)" stroke="#1D9BF0" stroke-width="1.10192"/>
    <line y1="-0.550958" x2="7.03637" y2="-0.550958" transform="matrix(0.732097 -0.6812 0.836474 0.548007 146.933 18.1425)" stroke="#1D9BF0" stroke-width="1.10192"/>
    <line y1="-0.550958" x2="7.33924" y2="-0.550958" transform="matrix(0.836474 -0.548007 0.732097 0.6812 164.224 17.7515)" stroke="#1D9BF0" stroke-width="1.10192"/>
    <line y1="-0.550958" x2="7.61287" y2="-0.550958" transform="matrix(0.911657 -0.410952 0.594567 0.804046 181.654 17.1648)" stroke="#1D9BF0" stroke-width="1.10192"/>
    <line y1="-0.550958" x2="7.03637" y2="-0.550958" transform="matrix(-0.732097 -0.6812 0.836474 -0.548007 10.4072 18.1425)" stroke="#1D9BF0" stroke-width="1.10192"/>
    <line y1="-0.550958" x2="6.73936" y2="-0.550958" transform="matrix(-0.594567 -0.804046 0.911657 -0.410952 27.582 18.3378)" stroke="#1D9BF0" stroke-width="1.10192"/>
    <line y1="-0.550958" x2="6.48719" y2="-0.550958" transform="matrix(-0.422517 -0.906355 0.961914 -0.273352 44.6611 18.5334)" stroke="#1D9BF0" stroke-width="1.10192"/>
    <line y1="-0.550958" x2="6.31717" y2="-0.550958" transform="matrix(-0.220291 -0.975434 0.990656 -0.136383 61.6807 18.7288)" stroke="#1D9BF0" stroke-width="1.10192"/>
    <line x1="78.117" y1="18.7288" x2="78.117" y2="12.4717" stroke="#1D9BF0" stroke-width="1.10192"/>
    <line y1="-0.550958" x2="6.31717" y2="-0.550958" transform="matrix(0.220291 -0.975434 0.990656 0.136383 95.6592 18.7288)" stroke="#1D9BF0" stroke-width="1.10192"/>
    <line y1="-0.550958" x2="6.48719" y2="-0.550958" transform="matrix(0.422517 -0.906355 0.961914 0.273352 94.6455 29.4835)" stroke="#1D9BF0" stroke-width="1.10192"/>
    <line y1="-0.550958" x2="6.73936" y2="-0.550958" transform="matrix(0.594567 -0.804046 0.911657 0.410952 111.729 29.2877)" stroke="#1D9BF0" stroke-width="1.10192"/>
    <line y1="-0.550958" x2="7.03637" y2="-0.550958" transform="matrix(0.732097 -0.6812 0.836474 0.548007 128.902 29.092)" stroke="#1D9BF0" stroke-width="1.10192"/>
    <line y1="-0.550958" x2="7.33924" y2="-0.550958" transform="matrix(0.836474 -0.548007 0.732097 0.6812 146.192 28.701)" stroke="#1D9BF0" stroke-width="1.10192"/>
    <line y1="-0.550958" x2="7.61287" y2="-0.550958" transform="matrix(0.911657 -0.410952 0.594567 0.804046 163.623 28.1143)" stroke="#1D9BF0" stroke-width="1.10192"/>
    <line y1="-0.550958" x2="7.82887" y2="-0.550958" transform="matrix(0.961914 -0.273352 0.422517 0.906355 181.211 27.7233)" stroke="#1D9BF0" stroke-width="1.10192"/>
    <line y1="-0.550958" x2="6.73936" y2="-0.550958" transform="matrix(-0.594567 -0.804046 0.911657 -0.410952 9.54883 29.2877)" stroke="#1D9BF0" stroke-width="1.10192"/>
    <line y1="-0.550958" x2="6.48719" y2="-0.550958" transform="matrix(-0.422517 -0.906355 0.961914 -0.273352 26.6309 29.4835)" stroke="#1D9BF0" stroke-width="1.10192"/>
    <line y1="-0.550958" x2="6.31717" y2="-0.550958" transform="matrix(-0.220291 -0.975434 0.990656 -0.136383 43.6523 29.6787)" stroke="#1D9BF0" stroke-width="1.10192"/>
    <line x1="60.0887" y1="29.6787" x2="60.0887" y2="23.4217" stroke="#1D9BF0" stroke-width="1.10192"/>
    <line y1="-0.550958" x2="6.31717" y2="-0.550958" transform="matrix(0.220291 -0.975434 0.990656 0.136383 77.626 29.6787)" stroke="#1D9BF0" stroke-width="1.10192"/>
    <line y1="-0.550958" x2="6.48719" y2="-0.550958" transform="matrix(0.422517 -0.906355 0.961914 0.273352 76.6152 40.433)" stroke="#1D9BF0" stroke-width="1.10192"/>
    <line y1="-0.550958" x2="6.73936" y2="-0.550958" transform="matrix(0.594567 -0.804046 0.911657 0.410952 93.6963 40.2378)" stroke="#1D9BF0" stroke-width="1.10192"/>
    <line y1="-0.550958" x2="7.03637" y2="-0.550958" transform="matrix(0.732097 -0.6812 0.836474 0.548007 110.869 40.042)" stroke="#1D9BF0" stroke-width="1.10192"/>
    <line y1="-0.550958" x2="7.33924" y2="-0.550958" transform="matrix(0.836474 -0.548007 0.732097 0.6812 128.159 39.651)" stroke="#1D9BF0" stroke-width="1.10192"/>
    <line y1="-0.550958" x2="7.61287" y2="-0.550958" transform="matrix(0.911657 -0.410952 0.594567 0.804046 145.592 39.0643)" stroke="#1D9BF0" stroke-width="1.10192"/>
    <line y1="-0.550958" x2="7.82887" y2="-0.550958" transform="matrix(0.961914 -0.273352 0.422517 0.906355 163.18 38.6733)" stroke="#1D9BF0" stroke-width="1.10192"/>
    <line y1="-0.550958" x2="7.96669" y2="-0.550958" transform="matrix(0.990656 -0.136383 0.220291 0.975434 180.941 38.0867)" stroke="#1D9BF0" stroke-width="1.10192"/>
    <line y1="-0.550958" x2="6.48719" y2="-0.550958" transform="matrix(-0.422517 -0.906355 0.961914 -0.273352 8.59961 40.433)" stroke="#1D9BF0" stroke-width="1.10192"/>
    <line y1="-0.550958" x2="6.31717" y2="-0.550958" transform="matrix(-0.220291 -0.975434 0.990656 -0.136383 25.6191 40.6288)" stroke="#1D9BF0" stroke-width="1.10192"/>
    <line x1="42.0555" y1="40.6288" x2="42.0555" y2="34.3717" stroke="#1D9BF0" stroke-width="1.10192"/>
    <line y1="-0.550958" x2="6.31717" y2="-0.550958" transform="matrix(0.220291 -0.975434 0.990656 0.136383 59.5957 40.6288)" stroke="#1D9BF0" stroke-width="1.10192"/>
    <line y1="-0.550958" x2="6.48719" y2="-0.550958" transform="matrix(0.422517 -0.906355 0.961914 0.273352 58.584 51.3831)" stroke="#1D9BF0" stroke-width="1.10192"/>
    <line y1="-0.550958" x2="6.73936" y2="-0.550958" transform="matrix(0.594567 -0.804046 0.911657 0.410952 75.666 51.1873)" stroke="#1D9BF0" stroke-width="1.10192"/>
    <line y1="-0.550958" x2="7.03637" y2="-0.550958" transform="matrix(0.732097 -0.6812 0.836474 0.548007 92.8379 50.9921)" stroke="#1D9BF0" stroke-width="1.10192"/>
    <line y1="-0.550958" x2="7.33924" y2="-0.550958" transform="matrix(0.836474 -0.548007 0.732097 0.6812 110.131 50.6006)" stroke="#1D9BF0" stroke-width="1.10192"/>
    <line y1="-0.550958" x2="7.61287" y2="-0.550958" transform="matrix(0.911657 -0.410952 0.594567 0.804046 127.559 50.0144)" stroke="#1D9BF0" stroke-width="1.10192"/>
    <line y1="-0.550958" x2="7.82887" y2="-0.550958" transform="matrix(0.961914 -0.273352 0.422517 0.906355 145.148 49.6229)" stroke="#1D9BF0" stroke-width="1.10192"/>
    <line y1="-0.550958" x2="7.96669" y2="-0.550958" transform="matrix(0.990656 -0.136383 0.220291 0.975434 162.908 49.0366)" stroke="#1D9BF0" stroke-width="1.10192"/>
    <line y1="-0.550958" x2="6.31717" y2="-0.550958" transform="matrix(-0.220291 -0.975434 0.990656 -0.136383 7.58789 51.5782)" stroke="#1D9BF0" stroke-width="1.10192"/>
    <line x1="24.0242" y1="51.5782" x2="24.0242" y2="45.3212" stroke="#1D9BF0" stroke-width="1.10192"/>
    <line y1="-0.550958" x2="6.31717" y2="-0.550958" transform="matrix(0.220291 -0.975434 0.990656 0.136383 41.5625 51.5782)" stroke="#1D9BF0" stroke-width="1.10192"/>
    <line x1="190.867" y1="49.0009" x2="182.853" y2="49.0009" stroke="#1D9BF0" stroke-width="1.10192"/>
    <line y1="-0.550958" x2="6.48719" y2="-0.550958" transform="matrix(0.422517 -0.906355 0.961914 0.273352 40.5527 62.3325)" stroke="#1D9BF0" stroke-width="1.10192"/>
    <line y1="-0.550958" x2="6.73936" y2="-0.550958" transform="matrix(0.594567 -0.804046 0.911657 0.410952 57.6328 62.1373)" stroke="#1D9BF0" stroke-width="1.10192"/>
    <line y1="-0.550958" x2="7.03637" y2="-0.550958" transform="matrix(0.732097 -0.6812 0.836474 0.548007 74.8066 61.9417)" stroke="#1D9BF0" stroke-width="1.10192"/>
    <line y1="-0.550958" x2="7.33924" y2="-0.550958" transform="matrix(0.836474 -0.548007 0.732097 0.6812 92.0977 61.5507)" stroke="#1D9BF0" stroke-width="1.10192"/>
    <line y1="-0.550958" x2="7.61287" y2="-0.550958" transform="matrix(0.911657 -0.410952 0.594567 0.804046 109.53 60.9639)" stroke="#1D9BF0" stroke-width="1.10192"/>
    <line y1="-0.550958" x2="7.82887" y2="-0.550958" transform="matrix(0.961914 -0.273352 0.422517 0.906355 127.118 60.5729)" stroke="#1D9BF0" stroke-width="1.10192"/>
    <line y1="-0.550958" x2="7.96669" y2="-0.550958" transform="matrix(0.990656 -0.136383 0.220291 0.975434 144.88 59.9862)" stroke="#1D9BF0" stroke-width="1.10192"/>
    <line x1="5.99103" y1="62.5283" x2="5.99103" y2="56.2713" stroke="#1D9BF0" stroke-width="1.10192"/>
    <line y1="-0.550958" x2="6.31717" y2="-0.550958" transform="matrix(0.220291 -0.975434 0.990656 0.136383 23.5332 62.5283)" stroke="#1D9BF0" stroke-width="1.10192"/>
    <line x1="172.834" y1="59.9509" x2="164.82" y2="59.9509" stroke="#1D9BF0" stroke-width="1.10192"/>
    <line y1="-0.550958" x2="7.96669" y2="-0.550958" transform="matrix(-0.990656 -0.136383 0.220291 -0.975434 190.777 59.9862)" stroke="#1D9BF0" stroke-width="1.10192"/>
    <line y1="-0.550958" x2="6.48719" y2="-0.550958" transform="matrix(0.422517 -0.906355 0.961914 0.273352 22.5195 73.2826)" stroke="#1D9BF0" stroke-width="1.10192"/>
    <line y1="-0.550958" x2="6.73936" y2="-0.550958" transform="matrix(0.594567 -0.804046 0.911657 0.410952 39.6016 73.0869)" stroke="#1D9BF0" stroke-width="1.10192"/>
    <line y1="-0.550958" x2="7.03637" y2="-0.550958" transform="matrix(0.732097 -0.6812 0.836474 0.548007 56.7764 72.8916)" stroke="#1D9BF0" stroke-width="1.10192"/>
    <line y1="-0.550958" x2="7.33924" y2="-0.550958" transform="matrix(0.836474 -0.548007 0.732097 0.6812 74.0664 72.5006)" stroke="#1D9BF0" stroke-width="1.10192"/>
    <line y1="-0.550958" x2="7.61287" y2="-0.550958" transform="matrix(0.911657 -0.410952 0.594567 0.804046 91.4971 71.9139)" stroke="#1D9BF0" stroke-width="1.10192"/>
    <line y1="-0.550958" x2="7.82887" y2="-0.550958" transform="matrix(0.961914 -0.273352 0.422517 0.906355 109.085 71.5229)" stroke="#1D9BF0" stroke-width="1.10192"/>
    <line y1="-0.550958" x2="7.96669" y2="-0.550958" transform="matrix(0.990656 -0.136383 0.220291 0.975434 126.847 70.9362)" stroke="#1D9BF0" stroke-width="1.10192"/>
    <line y1="-0.550958" x2="6.31717" y2="-0.550958" transform="matrix(0.220291 -0.975434 0.990656 0.136383 5.5 73.4784)" stroke="#1D9BF0" stroke-width="1.10192"/>
    <line x1="154.804" y1="70.9004" x2="146.79" y2="70.9004" stroke="#1D9BF0" stroke-width="1.10192"/>
    <line y1="-0.550958" x2="7.96669" y2="-0.550958" transform="matrix(-0.990656 -0.136383 0.220291 -0.975434 172.744 70.9362)" stroke="#1D9BF0" stroke-width="1.10192"/>
    <line y1="-0.550958" x2="7.82887" y2="-0.550958" transform="matrix(-0.961914 -0.273352 0.422517 -0.906355 190.506 71.5229)" stroke="#1D9BF0" stroke-width="1.10192"/>
    <line y1="-0.550958" x2="6.48719" y2="-0.550958" transform="matrix(0.422517 -0.906355 0.961914 0.273352 4.48926 84.2327)" stroke="#1D9BF0" stroke-width="1.10192"/>
    <line y1="-0.550958" x2="6.73936" y2="-0.550958" transform="matrix(0.594567 -0.804046 0.911657 0.410952 21.5703 84.0369)" stroke="#1D9BF0" stroke-width="1.10192"/>
    <line y1="-0.550958" x2="7.03637" y2="-0.550958" transform="matrix(0.732097 -0.6812 0.836474 0.548007 38.7432 83.8412)" stroke="#1D9BF0" stroke-width="1.10192"/>
    <line y1="-0.550958" x2="7.33924" y2="-0.550958" transform="matrix(0.836474 -0.548007 0.732097 0.6812 56.0332 83.4502)" stroke="#1D9BF0" stroke-width="1.10192"/>
    <line y1="-0.550958" x2="7.61287" y2="-0.550958" transform="matrix(0.911657 -0.410952 0.594567 0.804046 73.4658 82.8634)" stroke="#1D9BF0" stroke-width="1.10192"/>
    <line y1="-0.550958" x2="7.82887" y2="-0.550958" transform="matrix(0.961914 -0.273352 0.422517 0.906355 91.0537 82.4724)" stroke="#1D9BF0" stroke-width="1.10192"/>
    <line y1="-0.550958" x2="7.96669" y2="-0.550958" transform="matrix(0.990656 -0.136383 0.220291 0.975434 108.815 81.8862)" stroke="#1D9BF0" stroke-width="1.10192"/>
    <line y1="-0.550958" x2="7.61287" y2="-0.550958" transform="matrix(-0.911657 -0.410952 0.594567 -0.804046 190.062 82.8634)" stroke="#1D9BF0" stroke-width="1.10192"/>
    <line x1="136.772" y1="81.8505" x2="128.758" y2="81.8505" stroke="#1D9BF0" stroke-width="1.10192"/>
    <line y1="-0.550958" x2="7.96669" y2="-0.550958" transform="matrix(-0.990656 -0.136383 0.220291 -0.975434 154.713 81.8862)" stroke="#1D9BF0" stroke-width="1.10192"/>
    <line y1="-0.550958" x2="7.82887" y2="-0.550958" transform="matrix(-0.961914 -0.273352 0.422517 -0.906355 172.473 82.4724)" stroke="#1D9BF0" stroke-width="1.10192"/>
    <line y1="-0.550958" x2="6.73936" y2="-0.550958" transform="matrix(0.594567 -0.804046 0.911657 0.410952 3.54004 94.9869)" stroke="#1D9BF0" stroke-width="1.10192"/>
    <line y1="-0.550958" x2="7.03637" y2="-0.550958" transform="matrix(0.732097 -0.6812 0.836474 0.548007 20.7119 94.7911)" stroke="#1D9BF0" stroke-width="1.10192"/>
    <line y1="-0.550958" x2="7.33924" y2="-0.550958" transform="matrix(0.836474 -0.548007 0.732097 0.6812 38.0049 94.4001)" stroke="#1D9BF0" stroke-width="1.10192"/>
    <line y1="-0.550958" x2="7.61287" y2="-0.550958" transform="matrix(0.911657 -0.410952 0.594567 0.804046 55.4326 93.8135)" stroke="#1D9BF0" stroke-width="1.10192"/>
    <line y1="-0.550958" x2="7.82887" y2="-0.550958" transform="matrix(0.961914 -0.273352 0.422517 0.906355 73.0205 93.4225)" stroke="#1D9BF0" stroke-width="1.10192"/>
    <line y1="-0.550958" x2="7.96669" y2="-0.550958" transform="matrix(0.990656 -0.136383 0.220291 0.975434 90.7822 92.8357)" stroke="#1D9BF0" stroke-width="1.10192"/>
    <line y1="-0.550958" x2="7.61287" y2="-0.550958" transform="matrix(-0.911657 -0.410952 0.594567 -0.804046 172.029 93.8135)" stroke="#1D9BF0" stroke-width="1.10192"/>
    <line y1="-0.550958" x2="7.33924" y2="-0.550958" transform="matrix(-0.836474 -0.548007 0.732097 -0.6812 189.462 94.4001)" stroke="#1D9BF0" stroke-width="1.10192"/>
    <line x1="118.741" y1="92.8" x2="110.727" y2="92.8" stroke="#1D9BF0" stroke-width="1.10192"/>
    <line y1="-0.550958" x2="7.96669" y2="-0.550958" transform="matrix(-0.990656 -0.136383 0.220291 -0.975434 136.68 92.8357)" stroke="#1D9BF0" stroke-width="1.10192"/>
    <line y1="-0.550958" x2="7.82887" y2="-0.550958" transform="matrix(-0.961914 -0.273352 0.422517 -0.906355 154.442 93.4225)" stroke="#1D9BF0" stroke-width="1.10192"/>
    <line y1="-0.550958" x2="7.03637" y2="-0.550958" transform="matrix(0.732097 -0.6812 0.836474 0.548007 2.67871 105.741)" stroke="#1D9BF0" stroke-width="1.10192"/>
    <line y1="-0.550958" x2="7.33924" y2="-0.550958" transform="matrix(0.836474 -0.548007 0.732097 0.6812 19.9717 105.35)" stroke="#1D9BF0" stroke-width="1.10192"/>
    <line y1="-0.550958" x2="7.61287" y2="-0.550958" transform="matrix(0.911657 -0.410952 0.594567 0.804046 37.4043 104.763)" stroke="#1D9BF0" stroke-width="1.10192"/>
    <line y1="-0.550958" x2="7.82887" y2="-0.550958" transform="matrix(0.961914 -0.273352 0.422517 0.906355 54.9922 104.373)" stroke="#1D9BF0" stroke-width="1.10192"/>
    <line y1="-0.550958" x2="7.96669" y2="-0.550958" transform="matrix(0.990656 -0.136383 0.220291 0.975434 72.7539 103.786)" stroke="#1D9BF0" stroke-width="1.10192"/>
    <line y1="-0.550958" x2="7.61287" y2="-0.550958" transform="matrix(-0.911657 -0.410952 0.594567 -0.804046 153.999 104.763)" stroke="#1D9BF0" stroke-width="1.10192"/>
    <line y1="-0.550958" x2="7.33924" y2="-0.550958" transform="matrix(-0.836474 -0.548007 0.732097 -0.6812 171.429 105.35)" stroke="#1D9BF0" stroke-width="1.10192"/>
    <line y1="-0.550958" x2="7.03637" y2="-0.550958" transform="matrix(-0.732097 -0.6812 0.836474 -0.548007 188.72 105.741)" stroke="#1D9BF0" stroke-width="1.10192"/>
    <line x1="100.711" y1="103.75" x2="92.6969" y2="103.75" stroke="#1D9BF0" stroke-width="1.10192"/>
    <line y1="-0.550958" x2="7.96669" y2="-0.550958" transform="matrix(-0.990656 -0.136383 0.220291 -0.975434 118.651 103.786)" stroke="#1D9BF0" stroke-width="1.10192"/>
    <line y1="-0.550958" x2="7.82887" y2="-0.550958" transform="matrix(-0.961914 -0.273352 0.422517 -0.906355 136.411 104.373)" stroke="#1D9BF0" stroke-width="1.10192"/>
    <line y1="-0.550958" x2="7.33924" y2="-0.550958" transform="matrix(0.836474 -0.548007 0.732097 0.6812 1.94043 116.3)" stroke="#1D9BF0" stroke-width="1.10192"/>
    <line y1="-0.550958" x2="7.61287" y2="-0.550958" transform="matrix(0.911657 -0.410952 0.594567 0.804046 19.3711 115.713)" stroke="#1D9BF0" stroke-width="1.10192"/>
    <line y1="-0.550958" x2="7.82887" y2="-0.550958" transform="matrix(0.961914 -0.273352 0.422517 0.906355 36.959 115.322)" stroke="#1D9BF0" stroke-width="1.10192"/>
    <line y1="-0.550958" x2="7.96669" y2="-0.550958" transform="matrix(0.990656 -0.136383 0.220291 0.975434 54.7207 114.735)" stroke="#1D9BF0" stroke-width="1.10192"/>
    <line y1="-0.550958" x2="7.61287" y2="-0.550958" transform="matrix(-0.911657 -0.410952 0.594567 -0.804046 135.968 115.713)" stroke="#1D9BF0" stroke-width="1.10192"/>
    <line y1="-0.550958" x2="7.33924" y2="-0.550958" transform="matrix(-0.836474 -0.548007 0.732097 -0.6812 153.398 116.3)" stroke="#1D9BF0" stroke-width="1.10192"/>
    <line y1="-0.550958" x2="7.03637" y2="-0.550958" transform="matrix(-0.732097 -0.6812 0.836474 -0.548007 170.688 116.691)" stroke="#1D9BF0" stroke-width="1.10192"/>
    <line y1="-0.550958" x2="6.73936" y2="-0.550958" transform="matrix(-0.594567 -0.804046 0.911657 -0.410952 187.863 116.886)" stroke="#1D9BF0" stroke-width="1.10192"/>
    <line x1="82.6777" y1="114.7" x2="74.6637" y2="114.7" stroke="#1D9BF0" stroke-width="1.10192"/>
    <line y1="-0.550958" x2="7.96669" y2="-0.550958" transform="matrix(-0.990656 -0.136383 0.220291 -0.975434 100.618 114.735)" stroke="#1D9BF0" stroke-width="1.10192"/>
    <line y1="-0.550958" x2="7.82887" y2="-0.550958" transform="matrix(-0.961914 -0.273352 0.422517 -0.906355 118.378 115.322)" stroke="#1D9BF0" stroke-width="1.10192"/>
    <line y1="-0.550958" x2="7.61287" y2="-0.550958" transform="matrix(0.911657 -0.410952 0.594567 0.804046 1.33984 126.663)" stroke="#1D9BF0" stroke-width="1.10192"/>
    <line y1="-0.550958" x2="7.82887" y2="-0.550958" transform="matrix(0.961914 -0.273352 0.422517 0.906355 18.9277 126.272)" stroke="#1D9BF0" stroke-width="1.10192"/>
    <line y1="-0.550958" x2="7.96669" y2="-0.550958" transform="matrix(0.990656 -0.136383 0.220291 0.975434 36.6895 125.685)" stroke="#1D9BF0" stroke-width="1.10192"/>
    <line y1="-0.550958" x2="7.61287" y2="-0.550958" transform="matrix(-0.911657 -0.410952 0.594567 -0.804046 117.937 126.663)" stroke="#1D9BF0" stroke-width="1.10192"/>
    <line y1="-0.550958" x2="7.33924" y2="-0.550958" transform="matrix(-0.836474 -0.548007 0.732097 -0.6812 135.367 127.25)" stroke="#1D9BF0" stroke-width="1.10192"/>
    <line y1="-0.550958" x2="7.03637" y2="-0.550958" transform="matrix(-0.732097 -0.6812 0.836474 -0.548007 152.658 127.641)" stroke="#1D9BF0" stroke-width="1.10192"/>
    <line y1="-0.550958" x2="6.73936" y2="-0.550958" transform="matrix(-0.594567 -0.804046 0.911657 -0.410952 169.83 127.836)" stroke="#1D9BF0" stroke-width="1.10192"/>
    <line y1="-0.550958" x2="6.48719" y2="-0.550958" transform="matrix(-0.422517 -0.906355 0.961914 -0.273352 186.914 128.032)" stroke="#1D9BF0" stroke-width="1.10192"/>
    <line x1="64.6465" y1="125.65" x2="56.6325" y2="125.65" stroke="#1D9BF0" stroke-width="1.10192"/>
    <line y1="-0.550958" x2="7.96669" y2="-0.550958" transform="matrix(-0.990656 -0.136383 0.220291 -0.975434 82.5869 125.685)" stroke="#1D9BF0" stroke-width="1.10192"/>
    <line y1="-0.550958" x2="7.82887" y2="-0.550958" transform="matrix(-0.961914 -0.273352 0.422517 -0.906355 100.349 126.272)" stroke="#1D9BF0" stroke-width="1.10192"/>
    <line y1="-0.550958" x2="7.82887" y2="-0.550958" transform="matrix(0.961914 -0.273352 0.422517 0.906355 0.894531 137.222)" stroke="#1D9BF0" stroke-width="1.10192"/>
    <line y1="-0.550958" x2="7.96669" y2="-0.550958" transform="matrix(0.990656 -0.136383 0.220291 0.975434 18.6562 136.635)" stroke="#1D9BF0" stroke-width="1.10192"/>
    <line y1="-0.550958" x2="7.61287" y2="-0.550958" transform="matrix(-0.911657 -0.410952 0.594567 -0.804046 99.9033 137.613)" stroke="#1D9BF0" stroke-width="1.10192"/>
    <line y1="-0.550958" x2="7.33924" y2="-0.550958" transform="matrix(-0.836474 -0.548007 0.732097 -0.6812 117.336 138.199)" stroke="#1D9BF0" stroke-width="1.10192"/>
    <line y1="-0.550958" x2="7.03637" y2="-0.550958" transform="matrix(-0.732097 -0.6812 0.836474 -0.548007 134.627 138.59)" stroke="#1D9BF0" stroke-width="1.10192"/>
    <line y1="-0.550958" x2="6.73936" y2="-0.550958" transform="matrix(-0.594567 -0.804046 0.911657 -0.410952 151.801 138.786)" stroke="#1D9BF0" stroke-width="1.10192"/>
    <line y1="-0.550958" x2="6.48719" y2="-0.550958" transform="matrix(-0.422517 -0.906355 0.961914 -0.273352 168.881 138.982)" stroke="#1D9BF0" stroke-width="1.10192"/>
    <line y1="-0.550958" x2="6.31717" y2="-0.550958" transform="matrix(-0.220291 -0.975434 0.990656 -0.136383 185.9 139.177)" stroke="#1D9BF0" stroke-width="1.10192"/>
    <line x1="46.6152" y1="136.6" x2="38.6012" y2="136.6" stroke="#1D9BF0" stroke-width="1.10192"/>
    <line y1="-0.550958" x2="7.96669" y2="-0.550958" transform="matrix(-0.990656 -0.136383 0.220291 -0.975434 64.5537 136.635)" stroke="#1D9BF0" stroke-width="1.10192"/>
    <line y1="-0.550958" x2="7.82887" y2="-0.550958" transform="matrix(-0.961914 -0.273352 0.422517 -0.906355 82.3164 137.222)" stroke="#1D9BF0" stroke-width="1.10192"/>
    <line y1="-0.550958" x2="7.96669" y2="-0.550958" transform="matrix(0.990656 -0.136383 0.220291 0.975434 0.625977 147.585)" stroke="#1D9BF0" stroke-width="1.10192"/>
    <line y1="-0.550958" x2="7.61287" y2="-0.550958" transform="matrix(-0.911657 -0.410952 0.594567 -0.804046 81.873 148.563)" stroke="#1D9BF0" stroke-width="1.10192"/>
    <line y1="-0.550958" x2="7.33924" y2="-0.550958" transform="matrix(-0.836474 -0.548007 0.732097 -0.6812 99.3027 149.149)" stroke="#1D9BF0" stroke-width="1.10192"/>
    <line y1="-0.550958" x2="7.03637" y2="-0.550958" transform="matrix(-0.732097 -0.6812 0.836474 -0.548007 116.594 149.54)" stroke="#1D9BF0" stroke-width="1.10192"/>
    <line y1="-0.550958" x2="6.73936" y2="-0.550958" transform="matrix(-0.594567 -0.804046 0.911657 -0.410952 133.769 149.736)" stroke="#1D9BF0" stroke-width="1.10192"/>
    <line y1="-0.550958" x2="6.48719" y2="-0.550958" transform="matrix(-0.422517 -0.906355 0.961914 -0.273352 150.85 149.931)" stroke="#1D9BF0" stroke-width="1.10192"/>
    <line y1="-0.550958" x2="6.31717" y2="-0.550958" transform="matrix(-0.220291 -0.975434 0.990656 -0.136383 167.871 150.127)" stroke="#1D9BF0" stroke-width="1.10192"/>
    <line x1="184.307" y1="150.127" x2="184.307" y2="143.87" stroke="#1D9BF0" stroke-width="1.10192"/>
    <line x1="28.585" y1="147.549" x2="20.571" y2="147.549" stroke="#1D9BF0" stroke-width="1.10192"/>
    <line y1="-0.550958" x2="7.96669" y2="-0.550958" transform="matrix(-0.990656 -0.136383 0.220291 -0.975434 46.5234 147.585)" stroke="#1D9BF0" stroke-width="1.10192"/>
    <line y1="-0.550958" x2="7.82887" y2="-0.550958" transform="matrix(-0.961914 -0.273352 0.422517 -0.906355 64.2852 148.172)" stroke="#1D9BF0" stroke-width="1.10192"/>
    <line y1="-0.550958" x2="7.61287" y2="-0.550958" transform="matrix(-0.911657 -0.410952 0.594567 -0.804046 63.8418 159.513)" stroke="#1D9BF0" stroke-width="1.10192"/>
    <line y1="-0.550958" x2="7.33924" y2="-0.550958" transform="matrix(-0.836474 -0.548007 0.732097 -0.6812 81.2725 160.099)" stroke="#1D9BF0" stroke-width="1.10192"/>
    <line y1="-0.550958" x2="7.03637" y2="-0.550958" transform="matrix(-0.732097 -0.6812 0.836474 -0.548007 98.5645 160.49)" stroke="#1D9BF0" stroke-width="1.10192"/>
    <line y1="-0.550958" x2="6.73936" y2="-0.550958" transform="matrix(-0.594567 -0.804046 0.911657 -0.410952 115.737 160.686)" stroke="#1D9BF0" stroke-width="1.10192"/>
    <line y1="-0.550958" x2="6.48719" y2="-0.550958" transform="matrix(-0.422517 -0.906355 0.961914 -0.273352 132.816 160.881)" stroke="#1D9BF0" stroke-width="1.10192"/>
    <line y1="-0.550958" x2="6.31717" y2="-0.550958" transform="matrix(-0.220291 -0.975434 0.990656 -0.136383 149.839 161.077)" stroke="#1D9BF0" stroke-width="1.10192"/>
    <line x1="166.274" y1="161.077" x2="166.274" y2="154.819" stroke="#1D9BF0" stroke-width="1.10192"/>
    <line y1="-0.550958" x2="6.31717" y2="-0.550958" transform="matrix(0.220291 -0.975434 0.990656 0.136383 183.814 161.077)" stroke="#1D9BF0" stroke-width="1.10192"/>
    <line x1="10.5518" y1="158.499" x2="2.53776" y2="158.499" stroke="#1D9BF0" stroke-width="1.10192"/>
    <line y1="-0.550958" x2="7.96669" y2="-0.550958" transform="matrix(-0.990656 -0.136383 0.220291 -0.975434 28.4922 158.535)" stroke="#1D9BF0" stroke-width="1.10192"/>
    <line y1="-0.550958" x2="7.82887" y2="-0.550958" transform="matrix(-0.961914 -0.273352 0.422517 -0.906355 46.252 159.122)" stroke="#1D9BF0" stroke-width="1.10192"/>
    <line y1="-0.550958" x2="6.48719" y2="-0.550958" transform="matrix(0.422517 -0.906355 0.961914 0.273352 182.801 171.831)" stroke="#1D9BF0" stroke-width="1.10192"/>
    <line y1="-0.550958" x2="7.61287" y2="-0.550958" transform="matrix(-0.911657 -0.410952 0.594567 -0.804046 45.8105 170.462)" stroke="#1D9BF0" stroke-width="1.10192"/>
    <line y1="-0.550958" x2="7.33924" y2="-0.550958" transform="matrix(-0.836474 -0.548007 0.732097 -0.6812 63.2393 171.049)" stroke="#1D9BF0" stroke-width="1.10192"/>
    <line y1="-0.550958" x2="7.03637" y2="-0.550958" transform="matrix(-0.732097 -0.6812 0.836474 -0.548007 80.5322 171.44)" stroke="#1D9BF0" stroke-width="1.10192"/>
    <line y1="-0.550958" x2="6.73936" y2="-0.550958" transform="matrix(-0.594567 -0.804046 0.911657 -0.410952 97.7041 171.636)" stroke="#1D9BF0" stroke-width="1.10192"/>
    <line y1="-0.550958" x2="6.48719" y2="-0.550958" transform="matrix(-0.422517 -0.906355 0.961914 -0.273352 114.788 171.831)" stroke="#1D9BF0" stroke-width="1.10192"/>
    <line y1="-0.550958" x2="6.31717" y2="-0.550958" transform="matrix(-0.220291 -0.975434 0.990656 -0.136383 131.808 172.027)" stroke="#1D9BF0" stroke-width="1.10192"/>
    <line x1="148.244" y1="172.027" x2="148.244" y2="165.77" stroke="#1D9BF0" stroke-width="1.10192"/>
    <line y1="-0.550958" x2="6.31717" y2="-0.550958" transform="matrix(0.220291 -0.975434 0.990656 0.136383 165.782 172.027)" stroke="#1D9BF0" stroke-width="1.10192"/>
    <line y1="-0.550958" x2="7.96669" y2="-0.550958" transform="matrix(-0.990656 -0.136383 0.220291 -0.975434 10.4609 169.484)" stroke="#1D9BF0" stroke-width="1.10192"/>
    <line y1="-0.550958" x2="7.82887" y2="-0.550958" transform="matrix(-0.961914 -0.273352 0.422517 -0.906355 28.2227 170.071)" stroke="#1D9BF0" stroke-width="1.10192"/>
    <line y1="-0.550958" x2="6.48719" y2="-0.550958" transform="matrix(0.422517 -0.906355 0.961914 0.273352 164.772 182.781)" stroke="#1D9BF0" stroke-width="1.10192"/>
    <line y1="-0.550958" x2="6.73936" y2="-0.550958" transform="matrix(0.594567 -0.804046 0.911657 0.410952 181.853 182.585)" stroke="#1D9BF0" stroke-width="1.10192"/>
    <line y1="-0.550958" x2="7.61287" y2="-0.550958" transform="matrix(-0.911657 -0.410952 0.594567 -0.804046 27.7773 181.412)" stroke="#1D9BF0" stroke-width="1.10192"/>
    <line y1="-0.550958" x2="7.33924" y2="-0.550958" transform="matrix(-0.836474 -0.548007 0.732097 -0.6812 45.21 181.999)" stroke="#1D9BF0" stroke-width="1.10192"/>
    <line y1="-0.550958" x2="7.03637" y2="-0.550958" transform="matrix(-0.732097 -0.6812 0.836474 -0.548007 62.501 182.39)" stroke="#1D9BF0" stroke-width="1.10192"/>
    <line y1="-0.550958" x2="6.73936" y2="-0.550958" transform="matrix(-0.594567 -0.804046 0.911657 -0.410952 79.6748 182.585)" stroke="#1D9BF0" stroke-width="1.10192"/>
    <line y1="-0.550958" x2="6.48719" y2="-0.550958" transform="matrix(-0.422517 -0.906355 0.961914 -0.273352 96.7549 182.781)" stroke="#1D9BF0" stroke-width="1.10192"/>
    <line y1="-0.550958" x2="6.31717" y2="-0.550958" transform="matrix(-0.220291 -0.975434 0.990656 -0.136383 113.774 182.977)" stroke="#1D9BF0" stroke-width="1.10192"/>
    <line x1="130.211" y1="182.977" x2="130.211" y2="176.72" stroke="#1D9BF0" stroke-width="1.10192"/>
    <line y1="-0.550958" x2="6.31717" y2="-0.550958" transform="matrix(0.220291 -0.975434 0.990656 0.136383 147.751 182.977)" stroke="#1D9BF0" stroke-width="1.10192"/>
    <line y1="-0.550958" x2="7.82887" y2="-0.550958" transform="matrix(-0.961914 -0.273352 0.422517 -0.906355 10.1895 181.021)" stroke="#1D9BF0" stroke-width="1.10192"/>
    <line y1="-0.550958" x2="6.48719" y2="-0.550958" transform="matrix(0.422517 -0.906355 0.961914 0.273352 146.739 193.731)" stroke="#1D9BF0" stroke-width="1.10192"/>
    <line y1="-0.550958" x2="6.73936" y2="-0.550958" transform="matrix(0.594567 -0.804046 0.911657 0.410952 163.821 193.535)" stroke="#1D9BF0" stroke-width="1.10192"/>
    <line y1="-0.550958" x2="7.03637" y2="-0.550958" transform="matrix(0.732097 -0.6812 0.836474 0.548007 180.995 193.339)" stroke="#1D9BF0" stroke-width="1.10192"/>
    <line y1="-0.550958" x2="7.61287" y2="-0.550958" transform="matrix(-0.911657 -0.410952 0.594567 -0.804046 9.74609 192.362)" stroke="#1D9BF0" stroke-width="1.10192"/>
    <line y1="-0.550958" x2="7.33924" y2="-0.550958" transform="matrix(-0.836474 -0.548007 0.732097 -0.6812 27.1768 192.948)" stroke="#1D9BF0" stroke-width="1.10192"/>
    <line y1="-0.550958" x2="7.03637" y2="-0.550958" transform="matrix(-0.732097 -0.6812 0.836474 -0.548007 44.4678 193.339)" stroke="#1D9BF0" stroke-width="1.10192"/>
    <line y1="-0.550958" x2="6.73936" y2="-0.550958" transform="matrix(-0.594567 -0.804046 0.911657 -0.410952 61.6416 193.535)" stroke="#1D9BF0" stroke-width="1.10192"/>
    <line y1="-0.550958" x2="6.48719" y2="-0.550958" transform="matrix(-0.422517 -0.906355 0.961914 -0.273352 78.7236 193.731)" stroke="#1D9BF0" stroke-width="1.10192"/>
    <line y1="-0.550958" x2="6.31717" y2="-0.550958" transform="matrix(-0.220291 -0.975434 0.990656 -0.136383 95.7432 193.926)" stroke="#1D9BF0" stroke-width="1.10192"/>
    <line x1="112.18" y1="193.926" x2="112.18" y2="187.669" stroke="#1D9BF0" stroke-width="1.10192"/>
    <line y1="-0.550958" x2="6.31717" y2="-0.550958" transform="matrix(0.220291 -0.975434 0.990656 0.136383 129.72 193.926)" stroke="#1D9BF0" stroke-width="1.10192"/>
    <line y1="-0.550958" x2="6.48719" y2="-0.550958" transform="matrix(0.422517 -0.906355 0.961914 0.273352 128.708 204.68)" stroke="#1D9BF0" stroke-width="1.10192"/>
    <line y1="-0.550958" x2="6.73936" y2="-0.550958" transform="matrix(0.594567 -0.804046 0.911657 0.410952 145.788 204.485)" stroke="#1D9BF0" stroke-width="1.10192"/>
    <line y1="-0.550958" x2="7.03637" y2="-0.550958" transform="matrix(0.732097 -0.6812 0.836474 0.548007 162.963 204.289)" stroke="#1D9BF0" stroke-width="1.10192"/>
    <line y1="-0.550958" x2="7.33924" y2="-0.550958" transform="matrix(0.836474 -0.548007 0.732097 0.6812 180.253 203.898)" stroke="#1D9BF0" stroke-width="1.10192"/>
    <line y1="-0.550958" x2="7.33924" y2="-0.550958" transform="matrix(-0.836474 -0.548007 0.732097 -0.6812 9.14648 203.898)" stroke="#1D9BF0" stroke-width="1.10192"/>
    <line y1="-0.550958" x2="7.03637" y2="-0.550958" transform="matrix(-0.732097 -0.6812 0.836474 -0.548007 26.4385 204.289)" stroke="#1D9BF0" stroke-width="1.10192"/>
    <line y1="-0.550958" x2="6.73936" y2="-0.550958" transform="matrix(-0.594567 -0.804046 0.911657 -0.410952 43.6113 204.485)" stroke="#1D9BF0" stroke-width="1.10192"/>
    <line y1="-0.550958" x2="6.48719" y2="-0.550958" transform="matrix(-0.422517 -0.906355 0.961914 -0.273352 60.6904 204.68)" stroke="#1D9BF0" stroke-width="1.10192"/>
    <line y1="-0.550958" x2="6.31717" y2="-0.550958" transform="matrix(-0.220291 -0.975434 0.990656 -0.136383 77.7129 204.876)" stroke="#1D9BF0" stroke-width="1.10192"/>
    <line x1="94.1483" y1="204.876" x2="94.1483" y2="198.619" stroke="#1D9BF0" stroke-width="1.10192"/>
    <line y1="-0.550958" x2="6.31717" y2="-0.550958" transform="matrix(0.220291 -0.975434 0.990656 0.136383 111.688 204.876)" stroke="#1D9BF0" stroke-width="1.10192"/>
  </g>
  <defs>
    <clipPath id="clip0_46_2307">
      <rect x="0.100586" y="0.669067" width="191.733" height="204.956" rx="95.8667" fill="white"/>
    </clipPath>
  </defs>
</svg>