<svg xmlns="http://www.w3.org/2000/svg" width="25" height="25" viewBox="0 0 25 25" fill="none">
  <path d="M12.6816 13.7363C11.94 13.7363 11.2149 13.5164 10.5983 13.1043C9.98158 12.6923 9.50093 12.1066 9.2171 11.4214C8.93327 10.7362 8.85901 9.98217 9.0037 9.25474C9.1484 8.52731 9.50555 7.85912 10.03 7.33468C10.5544 6.81023 11.2226 6.45308 11.9501 6.30838C12.6775 6.16369 13.4315 6.23795 14.1167 6.52178C14.8019 6.80561 15.3876 7.28626 15.7997 7.90294C16.2117 8.51962 16.4316 9.24465 16.4316 9.98633C16.4305 10.9805 16.035 11.9337 15.332 12.6367C14.629 13.3397 13.6758 13.7351 12.6816 13.7363ZM12.6816 7.73633C12.2366 7.73633 11.8016 7.86829 11.4316 8.11552C11.0616 8.36275 10.7732 8.71416 10.6029 9.12529C10.4326 9.53642 10.3881 9.98882 10.4749 10.4253C10.5617 10.8617 10.776 11.2627 11.0907 11.5773C11.4053 11.892 11.8062 12.1063 12.2427 12.1931C12.6792 12.2799 13.1316 12.2354 13.5427 12.0651C13.9538 11.8948 14.3052 11.6064 14.5525 11.2364C14.7997 10.8664 14.9316 10.4313 14.9316 9.98633C14.9311 9.38977 14.6938 8.81782 14.272 8.396C13.8502 7.97417 13.2782 7.73692 12.6816 7.73633Z" fill="#AEB0B0"/>
  <path d="M12.6816 22.7363L6.35465 15.2746C6.26674 15.1625 6.17973 15.0498 6.09365 14.9363C5.01288 13.5127 4.42903 11.7737 4.43165 9.98633C4.43165 7.79829 5.30084 5.69987 6.84802 4.1527C8.39519 2.60552 10.4936 1.73633 12.6816 1.73633C14.8697 1.73633 16.9681 2.60552 18.5153 4.1527C20.0625 5.69987 20.9316 7.79829 20.9316 9.98633C20.9343 11.7729 20.3507 13.5111 19.2704 14.9341L19.2696 14.9363C19.2696 14.9363 19.0446 15.2318 19.0109 15.2716L12.6816 22.7363ZM7.29065 14.0326C7.29215 14.0326 7.46615 14.2636 7.5059 14.3131L12.6816 20.4173L17.8641 14.3048C17.8971 14.2636 18.0734 14.0303 18.0734 14.0303C18.9563 12.8672 19.4334 11.4466 19.4316 9.98633C19.4316 8.19612 18.7205 6.47923 17.4546 5.21336C16.1887 3.94749 14.4719 3.23633 12.6816 3.23633C10.8914 3.23633 9.17455 3.94749 7.90868 5.21336C6.64281 6.47923 5.93165 8.19612 5.93165 9.98633C5.93008 11.4475 6.40698 12.8689 7.29065 14.0326Z" fill="#AEB0B0"/>
</svg>