<svg width="110" height="108" viewBox="0 0 110 108" fill="none" xmlns="http://www.w3.org/2000/svg">
<g filter="url(#filter0_d_46_2535)">
<rect x="23.832" y="19.8577" width="62.1689" height="61.241" rx="30.6205" fill="#103162"/>
<path d="M54.9167 23.5692C40.0554 23.5692 28.0078 35.6171 28.0078 50.4781C28.0078 65.3403 40.0557 77.3871 54.9167 77.3871C69.7791 77.3871 81.8257 65.3403 81.8257 50.4781C81.8257 35.6181 69.7791 23.5707 54.9163 23.5707L54.9165 23.5694L54.9167 23.5692ZM67.2568 62.3799C66.7747 63.1703 65.74 63.4209 64.9496 62.9357C58.6316 59.0766 50.6784 58.2025 41.3118 60.3426C40.878 60.4413 40.4228 60.3637 40.0463 60.1269C39.6697 59.8901 39.4026 59.5134 39.3037 59.0797C39.2544 58.865 39.2479 58.6427 39.2846 58.4255C39.3214 58.2083 39.4006 58.0005 39.5178 57.814C39.6349 57.6274 39.7877 57.4658 39.9674 57.3384C40.1472 57.211 40.3502 57.1203 40.565 57.0715C50.8156 54.7295 59.6079 55.7378 66.701 60.0726C67.4914 60.5578 67.742 61.5894 67.2568 62.3799ZM70.5504 55.0529C69.9428 56.0399 68.6512 56.3516 67.6648 55.7443C60.4318 51.2984 49.4061 50.0108 40.8509 52.6077C39.7414 52.9428 38.5696 52.3176 38.2328 51.2099C37.8985 50.1004 38.5242 48.9307 39.6318 48.5935C49.4042 45.628 61.5531 47.0645 69.8596 52.1688C70.846 52.7763 71.1577 54.0677 70.5504 55.0529ZM70.8332 47.4231C62.1605 42.2718 47.8519 41.7979 39.5717 44.3114C38.242 44.7146 36.8358 43.9639 36.433 42.6342C36.03 41.3039 36.7799 39.8987 38.1106 39.4945C47.6156 36.6089 63.417 37.1666 73.4017 43.0942C74.6004 43.8039 74.9923 45.3486 74.2821 46.5429C73.5753 47.7391 72.0264 48.1333 70.8344 47.4231H70.8332Z" fill="#1ED760"/>
</g>
<defs>
<filter id="filter0_d_46_2535" x="0.634684" y="0.371894" width="108.564" height="107.636" filterUnits="userSpaceOnUse" color-interpolation-filters="sRGB">
<feFlood flood-opacity="0" result="BackgroundImageFix"/>
<feColorMatrix in="SourceAlpha" type="matrix" values="0 0 0 0 0 0 0 0 0 0 0 0 0 0 0 0 0 0 127 0" result="hardAlpha"/>
<feOffset dy="3.71158"/>
<feGaussianBlur stdDeviation="11.5987"/>
<feComposite in2="hardAlpha" operator="out"/>
<feColorMatrix type="matrix" values="0 0 0 0 0 0 0 0 0 0 0 0 0 0 0 0 0 0 0.1 0"/>
<feBlend mode="normal" in2="BackgroundImageFix" result="effect1_dropShadow_46_2535"/>
<feBlend mode="normal" in="SourceGraphic" in2="effect1_dropShadow_46_2535" result="shape"/>
</filter>
</defs>
</svg>
