<svg xmlns="http://www.w3.org/2000/svg" width="49" height="49" viewBox="0 0 49 49" fill="none">
  <path d="M19.6816 31.4042V17.0682C19.6819 16.8888 19.7305 16.7128 19.8222 16.5586C19.9139 16.4045 20.0453 16.2778 20.2028 16.1919C20.3603 16.106 20.5379 16.0641 20.7172 16.0705C20.8964 16.0768 21.0707 16.1313 21.2216 16.2282L32.3736 23.3942C32.5148 23.4846 32.631 23.6092 32.7115 23.7563C32.792 23.9034 32.8342 24.0685 32.8342 24.2362C32.8342 24.4039 32.792 24.5689 32.7115 24.716C32.631 24.8632 32.5148 24.9877 32.3736 25.0782L21.2216 32.2462C21.0707 32.343 20.8964 32.3975 20.7172 32.4039C20.5379 32.4102 20.3603 32.3683 20.2028 32.2824C20.0453 32.1965 19.9139 32.0698 19.8222 31.9157C19.7305 31.7615 19.6819 31.5855 19.6816 31.4062V31.4042Z" fill="#FDFDFD"/>
  <path d="M2.68164 24.2361C2.68164 12.0861 12.5316 2.23608 24.6816 2.23608C36.8316 2.23608 46.6816 12.0861 46.6816 24.2361C46.6816 36.3861 36.8316 46.2361 24.6816 46.2361C12.5316 46.2361 2.68164 36.3861 2.68164 24.2361ZM24.6816 5.23608C19.6425 5.23608 14.8098 7.23786 11.2466 10.8011C7.68342 14.3642 5.68164 19.197 5.68164 24.2361C5.68164 29.2752 7.68342 34.1079 11.2466 37.6711C14.8098 41.2343 19.6425 43.2361 24.6816 43.2361C29.7208 43.2361 34.5535 41.2343 38.1167 37.6711C41.6799 34.1079 43.6816 29.2752 43.6816 24.2361C43.6816 19.197 41.6799 14.3642 38.1167 10.8011C34.5535 7.23786 29.7208 5.23608 24.6816 5.23608Z" fill="#FDFDFD"/>
</svg>