<svg xmlns="http://www.w3.org/2000/svg" width="16" height="17" viewBox="0 0 16 17" fill="none">
  <path d="M6 7.1377C6 6.60726 6.21071 6.09855 6.58579 5.72348C6.96086 5.34841 7.46957 5.1377 8 5.1377C8.53043 5.1377 9.03914 5.34841 9.41421 5.72348C9.78929 6.09855 10 6.60726 10 7.1377V9.1377C10 9.66813 9.78929 10.1768 9.41421 10.5519C9.03914 10.927 8.53043 11.1377 8 11.1377C7.46957 11.1377 6.96086 10.927 6.58579 10.5519C6.21071 10.1768 6 9.66813 6 9.1377V7.1377Z" stroke="white"/>
  <path d="M8.66667 7.1377H10M8.66667 9.1377H10M6 7.1377H6.66667M6 9.1377H6.66667" stroke="white" stroke-linecap="round"/>
  <path d="M11.2999 5.97103C11.3218 6.03297 11.3556 6.08999 11.3996 6.13884C11.4435 6.18769 11.4966 6.22741 11.5559 6.25573C11.6152 6.28405 11.6794 6.30042 11.745 6.30391C11.8106 6.30739 11.8763 6.29792 11.9382 6.27603C12.0002 6.25414 12.0572 6.22027 12.106 6.17634C12.1549 6.13242 12.1946 6.0793 12.2229 6.02003C12.2512 5.96076 12.2676 5.89648 12.2711 5.83088C12.2746 5.76528 12.2651 5.69964 12.2432 5.6377L11.2999 5.97103ZM4.49922 9.90703V7.1377H3.49922V9.90703H4.49922ZM3.49922 9.90703C3.49922 10.3104 3.17255 10.6377 2.76855 10.6377V11.6377C3.22756 11.6377 3.66776 11.4554 3.99232 11.1308C4.31688 10.8062 4.49922 10.366 4.49922 9.90703H3.49922ZM11.4992 9.90703C11.4992 10.366 11.6816 10.8062 12.0061 11.1308C12.3307 11.4554 12.7709 11.6377 13.2299 11.6377V10.6377C12.8266 10.6377 12.4992 10.311 12.4992 9.90703H11.4992ZM7.99922 2.6377C6.80575 2.6377 5.66115 3.1118 4.81724 3.95571C3.97333 4.79963 3.49922 5.94422 3.49922 7.1377H4.49922C4.49922 5.20436 6.06589 3.6377 7.99922 3.6377V2.6377ZM7.99922 3.6377C9.52255 3.6377 10.8192 4.61103 11.2999 5.97103L12.2432 5.6377C11.9328 4.76023 11.358 4.00057 10.5979 3.46331C9.83789 2.92605 8.92998 2.63761 7.99922 2.6377V3.6377Z" fill="white"/>
  <path d="M1.33301 8.47103C1.33301 8.11741 1.47348 7.77827 1.72353 7.52822C1.97358 7.27817 2.31272 7.1377 2.66634 7.1377C3.01996 7.1377 3.3591 7.27817 3.60915 7.52822C3.8592 7.77827 3.99967 8.11741 3.99967 8.47103V9.80436C3.99967 10.158 3.8592 10.4971 3.60915 10.7472C3.3591 10.9972 3.01996 11.1377 2.66634 11.1377C2.31272 11.1377 1.97358 10.9972 1.72353 10.7472C1.47348 10.4971 1.33301 10.158 1.33301 9.80436V8.47103ZM11.9997 8.47103C11.9997 8.11741 12.1401 7.77827 12.3902 7.52822C12.6402 7.27817 12.9794 7.1377 13.333 7.1377C13.6866 7.1377 14.0258 7.27817 14.2758 7.52822C14.5259 7.77827 14.6663 8.11741 14.6663 8.47103V9.80436C14.6663 10.158 14.5259 10.4971 14.2758 10.7472C14.0258 10.9972 13.6866 11.1377 13.333 11.1377C12.9794 11.1377 12.6402 10.9972 12.3902 10.7472C12.1401 10.4971 11.9997 10.158 11.9997 9.80436V8.47103Z" stroke="white"/>
  <path d="M8 11.1377V13.1377" stroke="white" stroke-linecap="round"/>
</svg>