<svg xmlns="http://www.w3.org/2000/svg" width="7" height="13" viewBox="0 0 7 13" fill="none">
  <path d="M0.699804 11.7705C0.516471 11.5872 0.424805 11.3538 0.424805 11.0705C0.424805 10.7872 0.516471 10.5538 0.699804 10.3705L4.5998 6.47051L0.699804 2.57051C0.516471 2.38717 0.424805 2.15384 0.424805 1.87051C0.424805 1.58717 0.516471 1.35384 0.699804 1.17051C0.883138 0.987174 1.11647 0.895508 1.3998 0.895508C1.68314 0.895508 1.91647 0.987174 2.0998 1.17051L6.6998 5.77051C6.7998 5.87051 6.8708 5.97884 6.9128 6.09551C6.9548 6.21217 6.97547 6.33717 6.9748 6.47051C6.9748 6.60384 6.9538 6.72884 6.9118 6.84551C6.8698 6.96217 6.79914 7.07051 6.6998 7.17051L2.0998 11.7705C1.91647 11.9538 1.68314 12.0455 1.3998 12.0455C1.11647 12.0455 0.883138 11.9538 0.699804 11.7705Z" fill="white"/>
</svg>