<svg xmlns="http://www.w3.org/2000/svg" width="16" height="17" viewBox="0 0 16 17" fill="none">
  <path fill-rule="evenodd" clip-rule="evenodd" d="M14.6663 4.47101C14.6663 4.08657 14.5831 3.70669 14.4225 3.35741C14.2619 3.00812 14.0277 2.69769 13.736 2.44738C13.4442 2.19708 13.1017 2.01282 12.7321 1.90723C12.3624 1.80165 11.9743 1.77724 11.5943 1.83567L6.92768 2.55367C6.29802 2.65051 5.72384 2.96955 5.30905 3.45307C4.89426 3.93658 4.66627 4.55262 4.66634 5.18967V11.0317C4.20956 10.815 3.69475 10.7526 3.19941 10.8537C2.70406 10.9549 2.25498 11.2142 1.91974 11.5927C1.58451 11.9711 1.38125 12.4482 1.34058 12.9521C1.2999 13.456 1.42399 13.9596 1.69419 14.3869C1.96438 14.8142 2.36606 15.1422 2.83876 15.3215C3.31146 15.5008 3.82962 15.5217 4.31525 15.3811C4.80087 15.2405 5.2277 14.946 5.53148 14.5419C5.83526 14.1378 5.99957 13.6459 5.99968 13.1403V5.18967C5.99948 4.87103 6.1134 4.56285 6.32081 4.32096C6.52822 4.07906 6.8154 3.91944 7.13034 3.87101L11.797 3.15301C11.9871 3.12378 12.1812 3.13601 12.3661 3.18886C12.551 3.24171 12.7223 3.33392 12.8682 3.45919C13.0141 3.58445 13.1312 3.73979 13.2114 3.91456C13.2917 4.08932 13.3331 4.27937 13.333 4.47167V9.03167C12.8762 8.815 12.3614 8.75255 11.8661 8.85372C11.3707 8.9549 10.9216 9.21422 10.5864 9.59266C10.2512 9.9711 10.0479 10.4482 10.0072 10.9521C9.96656 11.456 10.0907 11.9596 10.3609 12.3869C10.631 12.8142 11.0327 13.1422 11.5054 13.3215C11.9781 13.5008 12.4963 13.5217 12.9819 13.3811C13.4675 13.2405 13.8944 12.946 14.1981 12.5419C14.5019 12.1378 14.6662 11.6459 14.6663 11.1403V4.47101ZM13.333 11.1403C13.333 10.8751 13.2277 10.6208 13.0401 10.4332C12.8526 10.2457 12.5982 10.1403 12.333 10.1403C12.0678 10.1403 11.8134 10.2457 11.6259 10.4332C11.4384 10.6208 11.333 10.8751 11.333 11.1403C11.333 11.4056 11.4384 11.6599 11.6259 11.8474C11.8134 12.035 12.0678 12.1403 12.333 12.1403C12.5982 12.1403 12.8526 12.035 13.0401 11.8474C13.2277 11.6599 13.333 11.4056 13.333 11.1403ZM4.66634 13.1403C4.66634 13.009 4.64048 12.879 4.59022 12.7577C4.53997 12.6363 4.46631 12.5261 4.37345 12.4332C4.28059 12.3404 4.17035 12.2667 4.04903 12.2165C3.9277 12.1662 3.79767 12.1403 3.66634 12.1403C3.53502 12.1403 3.40499 12.1662 3.28366 12.2165C3.16233 12.2667 3.05209 12.3404 2.95924 12.4332C2.86638 12.5261 2.79272 12.6363 2.74246 12.7577C2.69221 12.879 2.66634 13.009 2.66634 13.1403C2.66634 13.4056 2.7717 13.6599 2.95924 13.8474C3.14677 14.035 3.40113 14.1403 3.66634 14.1403C3.93156 14.1403 4.18591 14.035 4.37345 13.8474C4.56099 13.6599 4.66634 13.4056 4.66634 13.1403Z" fill="white"/>
</svg>