<svg width="64" height="52" viewBox="32 19 50 65" fill="none" xmlns="http://www.w3.org/2000/svg">
<g filter="url(#filter0_d_46_2519)">
<rect x="24.0381" y="19.8577" width="64.9526" height="61.241" rx="30.6205" fill="#103162"/>
<path d="M31.8821 50.5004C31.9651 50.5004 32.0315 50.4365 32.0481 50.341L32.4134 48.1099L32.0481 45.847C32.0315 45.7515 31.9651 45.6876 31.8821 45.6876C31.8381 45.6877 31.7959 45.7045 31.7647 45.7344C31.7336 45.7642 31.7161 45.8047 31.716 45.847L31.4004 48.1099L31.716 50.341C31.716 50.4365 31.799 50.5004 31.8821 50.5004Z" fill="url(#paint0_linear_46_2519)"/>
<path d="M33.9397 51.8786C34.0227 51.8786 34.1058 51.8149 34.1223 51.7194L34.6041 48.1338L34.1223 44.4686C34.1056 44.3729 34.0392 44.3091 33.9397 44.3091C33.8567 44.3091 33.7736 44.3729 33.757 44.4686L33.3418 48.1338L33.757 51.7194C33.7736 51.8149 33.84 51.8786 33.9397 51.8786Z" fill="url(#paint1_linear_46_2519)"/>
<path d="M36.1457 52.5721C36.2619 52.5721 36.3449 52.4924 36.3616 52.3649L36.8101 48.1737L36.3616 43.8231C36.3449 43.7116 36.2619 43.616 36.1457 43.616C36.0294 43.616 35.9464 43.6956 35.9297 43.8231L35.5312 48.1737L35.9297 52.3649C35.9464 52.4764 36.0294 52.5721 36.1457 52.5721Z" fill="url(#paint2_linear_46_2519)"/>
<path d="M38.3694 52.7232C38.5022 52.7232 38.6019 52.6277 38.6185 52.4844L39.0503 48.1657L38.6185 43.7038C38.6018 43.5761 38.5022 43.4646 38.3694 43.4646C38.2365 43.4646 38.1369 43.5603 38.1203 43.7036L37.7383 48.1657L38.1203 52.4844C38.1203 52.6277 38.2365 52.7232 38.3694 52.7232Z" fill="url(#paint3_linear_46_2519)"/>
<path d="M40.892 43.847C40.8754 43.6877 40.7591 43.5762 40.6096 43.5762C40.4602 43.5762 40.3273 43.6877 40.3273 43.847L39.9785 47.9905L40.3273 52.3409C40.344 52.5003 40.4602 52.6118 40.6096 52.6118C40.7591 52.6118 40.892 52.5003 40.892 52.3409L41.2905 47.9904L40.892 43.847Z" fill="url(#paint4_linear_46_2519)"/>
<path d="M42.8654 42.2455C42.6993 42.2455 42.5499 42.373 42.5499 42.5483L42.2178 49.2892L42.5497 53.6397C42.5664 53.815 42.6991 53.9424 42.8652 53.9424C43.0313 53.9424 43.1808 53.815 43.1808 53.6397L43.5628 49.2892L43.1808 42.5483C43.1808 42.389 43.0313 42.2455 42.8652 42.2455H42.8654Z" fill="url(#paint5_linear_46_2519)"/>
<path d="M45.5374 54.4041L45.8862 50.0695L45.5374 41.7828C45.5208 41.5916 45.3714 41.4481 45.1721 41.4481C44.9727 41.4481 44.8233 41.5916 44.8067 41.7828L44.4912 50.0695L44.8067 54.4041C44.8067 54.5953 44.9727 54.7388 45.1721 54.7388C45.3714 54.7548 45.5209 54.5953 45.5374 54.4041Z" fill="url(#paint6_linear_46_2519)"/>
<path d="M47.894 41.4726C47.8774 41.2654 47.7113 41.0902 47.4955 41.0902C47.2796 41.0902 47.1134 41.2496 47.0969 41.4726L46.8145 50.4445L47.0969 54.7312C47.0969 54.9384 47.2796 55.0977 47.4954 55.0977C47.7113 55.0977 47.8775 54.9384 47.894 54.7154L48.2262 50.4285L47.894 41.4726Z" fill="url(#paint7_linear_46_2519)"/>
<path d="M50.2826 41.3292C50.2826 41.106 50.0833 40.9148 49.8508 40.9148C49.7939 40.9144 49.7376 40.9249 49.685 40.9456C49.6325 40.9663 49.5847 40.9968 49.5445 41.0353C49.5043 41.0739 49.4725 41.1197 49.451 41.1701C49.4294 41.2206 49.4185 41.2746 49.4189 41.3292L49.1533 50.6038L49.4189 54.8587C49.4189 55.0818 49.6183 55.273 49.8508 55.273C50.0833 55.273 50.2659 55.0977 50.2826 54.8587L50.5815 50.6038L50.2826 41.3292Z" fill="url(#paint8_linear_46_2519)"/>
<path d="M52.9712 50.5161L52.6889 41.4643C52.689 41.4057 52.677 41.3477 52.6537 41.2935C52.6303 41.2394 52.5961 41.1901 52.5529 41.1487C52.5097 41.1073 52.4584 41.0744 52.4019 41.052C52.3455 41.0297 52.285 41.0182 52.2239 41.0183C52.1628 41.0182 52.1022 41.0296 52.0457 41.052C51.9893 41.0744 51.9379 41.1073 51.8947 41.1487C51.8515 41.1902 51.8172 41.2394 51.7939 41.2936C51.7705 41.3478 51.7586 41.4059 51.7587 41.4645L51.5098 50.5003L51.7589 54.7231C51.7587 54.7818 51.7707 54.8399 51.794 54.8941C51.8173 54.9483 51.8516 54.9975 51.8948 55.039C51.938 55.0805 51.9893 55.1133 52.0458 55.1357C52.1022 55.1581 52.1628 55.1696 52.2239 55.1695C52.285 55.1696 52.3455 55.1582 52.402 55.1358C52.4585 55.1134 52.5099 55.0805 52.5531 55.039C52.5963 54.9976 52.6306 54.9483 52.6539 54.8941C52.6772 54.8399 52.6892 54.7818 52.6891 54.7231L52.9712 50.5161Z" fill="url(#paint9_linear_46_2519)"/>
<path d="M55.3775 50.3569L55.1284 41.6399C55.1284 41.3689 54.896 41.1617 54.6302 41.1617C54.3479 41.1617 54.132 41.3689 54.132 41.6399L53.8994 50.3569L54.132 54.5479C54.132 54.8189 54.3644 55.0261 54.6302 55.0261C54.9125 55.0261 55.1284 54.8189 55.1284 54.5479L55.3775 50.3569Z" fill="url(#paint10_linear_46_2519)"/>
<path d="M57.8326 51.2096L57.6 40.8512C57.6 40.6759 57.5005 40.5165 57.3509 40.4209C57.2679 40.373 57.1684 40.3252 57.052 40.3252C56.9524 40.3252 56.8527 40.3572 56.753 40.405C56.6036 40.5005 56.5039 40.6599 56.5039 40.8352V40.9309L56.3047 51.1937L56.5039 55.3529V55.3689C56.5039 55.4803 56.5538 55.5919 56.6368 55.6716C56.7365 55.7831 56.8859 55.8628 57.052 55.8628C57.2015 55.8628 57.3344 55.7991 57.434 55.7194C57.5337 55.6238 57.6 55.4963 57.6 55.3529L57.6167 54.9386L57.8326 51.2096Z" fill="url(#paint11_linear_46_2519)"/>
<path d="M59.8735 39.9189C59.7834 39.8665 59.68 39.8389 59.5746 39.8391C59.4411 39.84 59.3121 39.8851 59.2092 39.9666C59.0764 40.0623 58.9933 40.2216 58.9933 40.397V40.4606L58.7607 51.7114L58.8771 53.7831L58.9933 55.8069C58.9933 56.1097 59.2591 56.3487 59.5746 56.3487C59.8902 56.3487 60.1393 56.0937 60.1559 55.7911L60.405 51.6955L60.1559 40.397C60.1393 40.1898 60.0396 40.0146 59.8735 39.9189Z" fill="url(#paint12_linear_46_2519)"/>
<path d="M76.38 46.9306C75.6659 46.9306 74.9849 47.0741 74.3539 47.3131C73.9387 42.8032 69.9858 39.2495 65.1695 39.2495C64.0272 39.2503 62.895 39.4557 61.8312 39.855C61.4327 39.9985 61.333 40.1579 61.333 40.4447V56.3647C61.333 56.6675 61.5821 56.9065 61.8977 56.9384H76.3966C79.2864 56.9384 81.6283 54.7233 81.6283 51.9505C81.6117 49.1777 79.2699 46.9306 76.38 46.9306Z" fill="url(#paint13_linear_46_2519)"/>
<path d="M39.4489 59.3802C38.8345 59.2369 38.6684 59.1731 38.6684 58.9341C38.6684 58.7747 38.8013 58.5994 39.2165 58.5994C39.5653 58.5994 39.8476 58.7429 40.0968 58.9817L40.6614 58.456C40.2959 58.0895 39.8476 57.8663 39.2497 57.8663C38.4857 57.8663 37.8711 58.2807 37.8711 58.95C37.8711 59.6831 38.3695 59.9061 39.0836 60.0496C39.8144 60.2089 39.9473 60.3205 39.9473 60.5595C39.9473 60.8463 39.7314 60.9578 39.2663 60.9578C38.9009 60.9578 38.5521 60.8305 38.2698 60.5276L37.7051 61.0057C38.004 61.42 38.5687 61.675 39.1998 61.675C40.2627 61.675 40.7112 61.197 40.7112 60.4958C40.7444 59.7149 40.0633 59.5077 39.4489 59.3802ZM43.0198 57.8823C41.9569 57.8823 41.3423 58.663 41.3423 59.7946C41.3423 60.926 41.9734 61.7069 43.0196 61.7069C44.066 61.7069 44.6971 60.9261 44.6971 59.7946C44.6971 58.6632 44.066 57.8823 43.0198 57.8823ZM43.0198 60.958C42.3886 60.958 42.1395 60.448 42.1395 59.7786C42.1395 59.1094 42.4052 58.5995 43.0198 58.5995C43.6509 58.5995 43.9001 59.1094 43.9001 59.7786C43.9001 60.448 43.6342 60.958 43.0198 60.958ZM47.8195 60.0178C47.8195 60.6073 47.5205 60.9738 47.0223 60.9738C46.5241 60.9738 46.2252 60.5915 46.2252 60.0018V57.93H45.4446V60.0178C45.4446 61.1013 46.0756 61.7069 47.0057 61.7069C47.9855 61.7069 48.5669 61.0855 48.5669 60.0178V57.946H47.7863V60.0178H47.8195ZM51.9217 59.5077C51.9217 59.7149 51.9384 60.1771 51.9384 60.3205C51.8884 60.2249 51.7557 60.0336 51.6726 59.9061L50.2941 57.946H49.5468V61.6592H50.3108V60.0178C50.3108 59.8106 50.2941 59.3484 50.2941 59.2051C50.3441 59.3006 50.4768 59.4917 50.5599 59.6194L51.9716 61.6432H52.6692V57.93H51.9051V59.5077H51.9217ZM54.8945 57.9302H53.6822V61.6432H54.8282C55.8247 61.6432 56.8046 61.0855 56.8046 59.7946C56.8046 58.4242 55.9908 57.9302 54.8945 57.9302ZM54.8282 60.926H54.4462V58.6632H54.8614C55.6752 58.6632 56.024 59.0456 56.024 59.7946C56.024 60.464 55.642 60.926 54.8282 60.926ZM59.1962 58.6154C59.545 58.6154 59.7607 58.7587 59.9103 59.0137L60.6244 58.695C60.3753 58.217 59.9435 57.8663 59.2127 57.8663C58.1996 57.8663 57.502 58.6472 57.502 59.7786C57.502 60.942 58.183 61.691 59.196 61.691C59.8936 61.691 60.3586 61.3723 60.6244 60.8463L59.9767 60.48C59.7774 60.8145 59.5615 60.958 59.2127 60.958C58.6315 60.958 58.2994 60.448 58.2994 59.7786C58.2994 59.0934 58.6315 58.6154 59.1962 58.6154ZM62.0693 57.9302H61.2888V61.6432H63.6139V60.9101H62.0693V57.9302ZM65.6567 57.8822C64.5938 57.8822 63.9794 58.6632 63.9794 59.7946C63.9794 60.926 64.6105 61.7069 65.6567 61.7069C66.7196 61.7069 67.3342 60.9261 67.3342 59.7946C67.3342 58.6632 66.7196 57.8823 65.6569 57.8823L65.6567 57.8822ZM65.6567 60.958C65.0256 60.958 64.7763 60.448 64.7763 59.7786C64.7763 59.1094 65.0423 58.5995 65.6567 58.5995C66.2879 58.5995 66.537 59.1094 66.537 59.7786C66.537 60.448 66.2879 60.958 65.6567 60.958ZM70.4565 60.0178C70.4565 60.6073 70.1576 60.9738 69.6594 60.9738C69.161 60.9738 68.8621 60.5915 68.8621 60.0018V57.93H68.0816V60.0178C68.0816 61.1013 68.7127 61.7069 69.6427 61.7069C70.6226 61.7069 71.2038 61.0855 71.2038 60.0178V57.946H70.4234V60.0178H70.4565ZM73.4127 57.93H72.2004V61.6432H73.3463C74.3429 61.6432 75.3227 61.0855 75.3227 59.7946C75.3227 58.4242 74.5089 57.9302 73.4128 57.9302L73.4127 57.93ZM73.3463 60.926H72.981V58.6632H73.3962C74.2098 58.6632 74.5421 59.0456 74.5421 59.7946C74.5421 60.464 74.1603 60.926 73.3463 60.926Z" fill="#F04923"/>
</g>
<defs>
<filter id="filter0_d_46_2519" x="0.840738" y="0.371894" width="111.347" height="107.636" filterUnits="userSpaceOnUse" color-interpolation-filters="sRGB">
<feFlood flood-opacity="0" result="BackgroundImageFix"/>
<feColorMatrix in="SourceAlpha" type="matrix" values="0 0 0 0 0 0 0 0 0 0 0 0 0 0 0 0 0 0 127 0" result="hardAlpha"/>
<feOffset dy="3.71158"/>
<feGaussianBlur stdDeviation="11.5987"/>
<feComposite in2="hardAlpha" operator="out"/>
<feColorMatrix type="matrix" values="0 0 0 0 0 0 0 0 0 0 0 0 0 0 0 0 0 0 0.1 0"/>
<feBlend mode="normal" in2="BackgroundImageFix" result="effect1_dropShadow_46_2519"/>
<feBlend mode="normal" in="SourceGraphic" in2="effect1_dropShadow_46_2519" result="shape"/>
</filter>
<linearGradient id="paint0_linear_46_2519" x1="82.3825" y1="-1014.07" x2="82.3825" y2="757.62" gradientUnits="userSpaceOnUse">
<stop stop-color="#F6871F"/>
<stop offset="0.2393" stop-color="#F57E20"/>
<stop offset="0.6262" stop-color="#F36621"/>
<stop offset="1" stop-color="#F04923"/>
</linearGradient>
<linearGradient id="paint1_linear_46_2519" x1="95.3962" y1="-875.212" x2="95.3962" y2="896.475" gradientUnits="userSpaceOnUse">
<stop stop-color="#F6871F"/>
<stop offset="0.2393" stop-color="#F57E20"/>
<stop offset="0.6262" stop-color="#F36621"/>
<stop offset="1" stop-color="#F04923"/>
</linearGradient>
<linearGradient id="paint2_linear_46_2519" x1="100.012" y1="-802.592" x2="100.012" y2="969.085" gradientUnits="userSpaceOnUse">
<stop stop-color="#F6871F"/>
<stop offset="0.2393" stop-color="#F57E20"/>
<stop offset="0.6262" stop-color="#F36621"/>
<stop offset="1" stop-color="#F04923"/>
</linearGradient>
<linearGradient id="paint3_linear_46_2519" x1="102.715" y1="-788.391" x2="102.715" y2="983.268" gradientUnits="userSpaceOnUse">
<stop stop-color="#F6871F"/>
<stop offset="0.2393" stop-color="#F57E20"/>
<stop offset="0.6262" stop-color="#F36621"/>
<stop offset="1" stop-color="#F04923"/>
</linearGradient>
<linearGradient id="paint4_linear_46_2519" x1="105.131" y1="-816.957" x2="105.131" y2="954.691" gradientUnits="userSpaceOnUse">
<stop stop-color="#F6871F"/>
<stop offset="0.2393" stop-color="#F57E20"/>
<stop offset="0.6262" stop-color="#F36621"/>
<stop offset="1" stop-color="#F04923"/>
</linearGradient>
<linearGradient id="paint5_linear_46_2519" x1="108.925" y1="-555.349" x2="108.925" y2="1216.3" gradientUnits="userSpaceOnUse">
<stop stop-color="#F6871F"/>
<stop offset="0.2393" stop-color="#F57E20"/>
<stop offset="0.6262" stop-color="#F36621"/>
<stop offset="1" stop-color="#F04923"/>
</linearGradient>
<linearGradient id="paint6_linear_46_2519" x1="114.821" y1="-399.984" x2="114.821" y2="1371.69" gradientUnits="userSpaceOnUse">
<stop stop-color="#F6871F"/>
<stop offset="0.2393" stop-color="#F57E20"/>
<stop offset="0.6262" stop-color="#F36621"/>
<stop offset="1" stop-color="#F04923"/>
</linearGradient>
<linearGradient id="paint7_linear_46_2519" x1="117.444" y1="-325.431" x2="117.444" y2="1446.2" gradientUnits="userSpaceOnUse">
<stop stop-color="#F6871F"/>
<stop offset="0.2393" stop-color="#F57E20"/>
<stop offset="0.6262" stop-color="#F36621"/>
<stop offset="1" stop-color="#F04923"/>
</linearGradient>
<linearGradient id="paint8_linear_46_2519" x1="120.473" y1="-292.138" x2="120.473" y2="1479.51" gradientUnits="userSpaceOnUse">
<stop stop-color="#F6871F"/>
<stop offset="0.2393" stop-color="#F57E20"/>
<stop offset="0.6262" stop-color="#F36621"/>
<stop offset="1" stop-color="#F04923"/>
</linearGradient>
<linearGradient id="paint9_linear_46_2519" x1="124.884" y1="-312.761" x2="124.884" y2="1458.9" gradientUnits="userSpaceOnUse">
<stop stop-color="#F6871F"/>
<stop offset="0.2393" stop-color="#F57E20"/>
<stop offset="0.6262" stop-color="#F36621"/>
<stop offset="1" stop-color="#F04923"/>
</linearGradient>
<linearGradient id="paint10_linear_46_2519" x1="127.388" y1="-342.894" x2="127.388" y2="1428.76" gradientUnits="userSpaceOnUse">
<stop stop-color="#F6871F"/>
<stop offset="0.2393" stop-color="#F57E20"/>
<stop offset="0.6262" stop-color="#F36621"/>
<stop offset="1" stop-color="#F04923"/>
</linearGradient>
<linearGradient id="paint11_linear_46_2519" x1="132.932" y1="-174.808" x2="132.932" y2="1596.86" gradientUnits="userSpaceOnUse">
<stop stop-color="#F6871F"/>
<stop offset="0.2393" stop-color="#F57E20"/>
<stop offset="0.6262" stop-color="#F36621"/>
<stop offset="1" stop-color="#F04923"/>
</linearGradient>
<linearGradient id="paint12_linear_46_2519" x1="141.032" y1="-78.0892" x2="141.032" y2="1693.58" gradientUnits="userSpaceOnUse">
<stop stop-color="#F6871F"/>
<stop offset="0.2393" stop-color="#F57E20"/>
<stop offset="0.6262" stop-color="#F36621"/>
<stop offset="1" stop-color="#F04923"/>
</linearGradient>
<linearGradient id="paint13_linear_46_2519" x1="1074.7" y1="39.2495" x2="1074.7" y2="1808.44" gradientUnits="userSpaceOnUse">
<stop stop-color="#F6871F"/>
<stop offset="0.2402" stop-color="#F57E20"/>
<stop offset="0.6306" stop-color="#F36621"/>
<stop offset="1" stop-color="#F04923"/>
</linearGradient>
</defs>
</svg>
