<svg width="64" height="52" viewBox="35 19 50 70" fill="none" xmlns="http://www.w3.org/2000/svg">
<g filter="url(#filter0_d_46_2754)">
<rect x="23.9092" y="19.6543" width="72.0915" height="64.9526" rx="32.4763" fill="#103162"/>
<path d="M47.3847 46.2152V58.0459C47.3847 58.4381 47.2289 58.8142 46.9516 59.0916C46.6743 59.3689 46.2981 59.5247 45.9059 59.5247H44.4271C44.0349 59.5247 43.6587 59.3689 43.3814 59.0916C43.104 58.8142 42.9482 58.4381 42.9482 58.0459V46.2152C42.9482 45.823 43.104 45.4469 43.3814 45.1695C43.6587 44.8922 44.0349 44.7364 44.4271 44.7364H45.9059C46.2981 44.7364 46.6743 44.8922 46.9516 45.1695C47.2289 45.4469 47.3847 45.823 47.3847 46.2152ZM53.3001 32.9058H51.8212C51.429 32.9058 51.0529 33.0616 50.7755 33.3389C50.4982 33.6162 50.3424 33.9924 50.3424 34.3846V69.8765C50.3424 70.2687 50.4982 70.6449 50.7755 70.9222C51.0529 71.1996 51.429 71.3554 51.8212 71.3554H53.3001C53.6923 71.3554 54.0684 71.1996 54.3457 70.9222C54.6231 70.6449 54.7789 70.2687 54.7789 69.8765V34.3846C54.7789 33.9924 54.6231 33.6162 54.3457 33.3389C54.0684 33.0616 53.6923 32.9058 53.3001 32.9058ZM60.6942 38.8211H59.2154C58.8232 38.8211 58.447 38.9769 58.1697 39.2542C57.8924 39.5316 57.7366 39.9077 57.7366 40.2999V63.9612C57.7366 64.3534 57.8924 64.7296 58.1697 65.0069C58.447 65.2842 58.8232 65.44 59.2154 65.44H60.6942C61.0864 65.44 61.4626 65.2842 61.7399 65.0069C62.0172 64.7296 62.173 64.3534 62.173 63.9612V40.2999C62.173 39.9077 62.0172 39.5316 61.7399 39.2542C61.4626 38.9769 61.0864 38.8211 60.6942 38.8211ZM68.0884 44.7364H66.6095C66.2173 44.7364 65.8412 44.8922 65.5638 45.1695C65.2865 45.4469 65.1307 45.823 65.1307 46.2152V58.0459C65.1307 58.4381 65.2865 58.8142 65.5638 59.0916C65.8412 59.3689 66.2173 59.5247 66.6095 59.5247H68.0884C68.4806 59.5247 68.8567 59.3689 69.1341 59.0916C69.4114 58.8142 69.5672 58.4381 69.5672 58.0459V46.2152C69.5672 45.823 69.4114 45.4469 69.1341 45.1695C68.8567 44.8922 68.4806 44.7364 68.0884 44.7364ZM75.4825 41.7787H74.0037C73.6115 41.7787 73.2353 41.9346 72.958 42.2119C72.6807 42.4892 72.5249 42.8654 72.5249 43.2576V61.0035C72.5249 61.3958 72.6807 61.7719 72.958 62.0492C73.2353 62.3266 73.6115 62.4824 74.0037 62.4824H75.4825C75.8747 62.4824 76.2509 62.3266 76.5282 62.0492C76.8055 61.7719 76.9614 61.3958 76.9614 61.0035V43.2576C76.9614 42.8654 76.8055 42.4892 76.5282 42.2119C76.2509 41.9346 75.8747 41.7787 75.4825 41.7787Z" fill="#F3CD91"/>
</g>
<defs>
<filter id="filter0_d_46_2754" x="0.711832" y="0.168525" width="118.486" height="111.347" filterUnits="userSpaceOnUse" color-interpolation-filters="sRGB">
<feFlood flood-opacity="0" result="BackgroundImageFix"/>
<feColorMatrix in="SourceAlpha" type="matrix" values="0 0 0 0 0 0 0 0 0 0 0 0 0 0 0 0 0 0 127 0" result="hardAlpha"/>
<feOffset dy="3.71158"/>
<feGaussianBlur stdDeviation="11.5987"/>
<feComposite in2="hardAlpha" operator="out"/>
<feColorMatrix type="matrix" values="0 0 0 0 0 0 0 0 0 0 0 0 0 0 0 0 0 0 0.1 0"/>
<feBlend mode="normal" in2="BackgroundImageFix" result="effect1_dropShadow_46_2754"/>
<feBlend mode="normal" in="SourceGraphic" in2="effect1_dropShadow_46_2754" result="shape"/>
</filter>
</defs>
</svg>
