<svg xmlns="http://www.w3.org/2000/svg" width="16" height="17" viewBox="0 0 16 17" fill="none">
  <path d="M3 8.13737H13M3 8.13737V11.804C3 11.9808 3.07024 12.1504 3.19526 12.2754C3.32029 12.4005 3.48986 12.4707 3.66667 12.4707H12.3333C12.5101 12.4707 12.6797 12.4005 12.8047 12.2754C12.9298 12.1504 13 11.9808 13 11.804V8.13737M3 8.13737V3.13737C3 2.96056 3.07024 2.79099 3.19526 2.66597C3.32029 2.54094 3.48986 2.4707 3.66667 2.4707H12.3333C12.5101 2.4707 12.6797 2.54094 12.8047 2.66597C12.9298 2.79099 13 2.96056 13 3.13737V8.13737" stroke="white" stroke-linejoin="round"/>
  <path d="M5 14.4707C4.73478 14.4707 4.48043 14.3653 4.29289 14.1778C4.10536 13.9903 4 13.7359 4 13.4707V12.4707H6V13.4707C6 13.7359 5.89464 13.9903 5.70711 14.1778C5.51957 14.3653 5.26522 14.4707 5 14.4707ZM11 14.4707C10.7348 14.4707 10.4804 14.3653 10.2929 14.1778C10.1054 13.9903 10 13.7359 10 13.4707V12.4707H12V13.4707C12 13.7359 11.8946 13.9903 11.7071 14.1778C11.5196 14.3653 11.2652 14.4707 11 14.4707Z" stroke="white" stroke-linecap="round" stroke-linejoin="round"/>
  <path d="M2 4.4707V5.80404M14 4.4707V5.80404" stroke="white" stroke-linecap="round"/>
  <path d="M4.99967 11.137C5.36786 11.137 5.66634 10.8386 5.66634 10.4704C5.66634 10.1022 5.36786 9.80371 4.99967 9.80371C4.63148 9.80371 4.33301 10.1022 4.33301 10.4704C4.33301 10.8386 4.63148 11.137 4.99967 11.137Z" fill="white"/>
  <path d="M10.9997 11.137C11.3679 11.137 11.6663 10.8386 11.6663 10.4704C11.6663 10.1022 11.3679 9.80371 10.9997 9.80371C10.6315 9.80371 10.333 10.1022 10.333 10.4704C10.333 10.8386 10.6315 11.137 10.9997 11.137Z" fill="white"/>
  <path d="M10.333 2.4707L7.33301 5.80404M12.6663 2.80404L10.9997 4.80404" stroke="white" stroke-linecap="round"/>
</svg>